<?xml version="1.0" standalone="no"?>
<!DOCTYPE svg PUBLIC "-//W3C//DTD SVG 20010904//EN"
 "http://www.w3.org/TR/2001/REC-SVG-20010904/DTD/svg10.dtd">
<svg version="1.0" xmlns="http://www.w3.org/2000/svg"
 width="720.000000pt" height="1280.000000pt" viewBox="0 0 720.000000 1280.000000"
 preserveAspectRatio="xMidYMid meet">

<g transform="translate(0.000000,1280.000000) scale(0.100000,-0.100000)"
fill="#000000" stroke="none">
<path d="M0 7585 c0 -2868 2 -5215 5 -5215 2 0 19 9 37 20 18 11 41 20 51 20
13 0 10 -7 -15 -29 -18 -16 -42 -30 -53 -32 -19 -4 -20 -12 -20 -219 l0 -215
52 0 c29 -1 53 2 53 5 0 13 42 50 50 45 18 -11 22 -84 6 -115 -8 -17 -13 -39
-10 -48 5 -13 4 -14 -4 -4 -13 19 -65 -5 -115 -53 l-37 -36 2 -226 c2 -170 6
-227 16 -231 6 -2 12 3 12 11 0 9 12 29 26 46 21 25 34 31 64 31 61 0 89 -16
106 -57 18 -45 41 -97 62 -136 28 -55 10 -177 -32 -216 l-22 -21 -40 20 c-42
22 -127 25 -143 6 -5 -6 -12 -25 -15 -43 -4 -17 -14 -37 -22 -44 -12 -10 -14
-79 -14 -430 l0 -419 245 0 245 0 2 43 c1 23 2 67 3 97 0 46 3 55 18 55 9 0
23 11 30 25 7 14 21 37 31 52 14 21 16 34 8 55 l-9 28 -7 -32 c-4 -17 -14 -34
-23 -37 -26 -10 -27 2 -3 22 23 19 23 20 7 55 -19 39 -21 59 -8 73 5 5 11 18
14 29 4 15 5 13 6 -7 1 -16 -4 -28 -11 -28 -7 0 -5 -5 5 -11 27 -16 39 1 28
39 -7 23 -6 31 2 29 8 -1 12 13 12 39 0 26 4 40 11 37 10 -4 12 11 13 114 0
23 5 44 11 48 5 3 10 17 10 30 0 13 8 29 18 34 10 6 30 33 43 60 13 28 27 51
31 51 5 0 8 15 8 34 0 43 36 106 60 106 28 0 32 29 9 58 l-20 26 21 8 c11 4
29 27 39 50 10 24 26 49 35 57 9 7 16 22 16 32 0 10 10 38 22 61 19 35 24 63
26 147 3 66 7 99 13 90 7 -11 9 -11 9 4 0 20 18 22 45 3 45 -30 443 -236 457
-236 3 0 64 -28 134 -61 195 -93 345 -149 366 -138 18 10 68 -7 68 -23 0 -4 9
-8 21 -8 12 0 19 -5 16 -12 -2 -7 -10 -12 -16 -10 -9 2 -9 -3 -1 -18 6 -11 16
-20 23 -20 8 0 7 4 -3 11 -11 8 -12 12 -3 16 7 2 13 11 13 19 0 18 16 18 258
-1 186 -15 244 -27 263 -57 3 -5 42 -14 85 -19 113 -13 227 -40 240 -56 10
-11 44 -13 190 -6 99 4 249 7 334 8 180 1 288 12 308 32 8 8 21 12 28 9 7 -3
44 10 82 29 38 19 81 37 96 41 14 3 26 10 26 14 0 5 14 11 31 15 17 4 40 18
52 31 11 13 28 24 37 24 9 0 27 10 39 21 19 18 25 19 32 8 6 -10 9 -7 9 13 0
35 37 65 147 119 48 24 112 60 142 81 30 21 58 38 63 38 4 0 45 18 90 40 46
22 99 43 118 46 19 4 40 10 45 14 6 4 29 11 52 15 l42 7 -9 -33 c-5 -18 -18
-42 -28 -53 -10 -12 -25 -36 -32 -53 -7 -18 -16 -33 -21 -33 -5 0 -9 -5 -9
-12 0 -6 -20 -44 -45 -84 -25 -39 -45 -74 -45 -77 0 -3 -64 -108 -141 -234
-205 -330 -249 -403 -249 -410 0 -3 -11 -21 -25 -39 -14 -18 -25 -36 -25 -39
0 -3 -11 -21 -25 -39 -14 -18 -25 -35 -25 -39 0 -3 -30 -54 -66 -114 -37 -59
-76 -124 -87 -143 -10 -19 -27 -46 -36 -60 -10 -14 -28 -42 -40 -62 l-23 -38
715 0 715 0 10 28 c42 113 49 127 69 125 17 -2 19 4 18 35 -1 37 19 92 35 92
17 0 28 -27 28 -70 0 -25 2 -52 5 -60 11 -30 32 -125 31 -137 -1 -10 26 -13
107 -13 100 0 109 2 109 19 0 10 -7 21 -15 24 -8 4 -23 24 -34 46 -11 21 -32
48 -46 59 -14 11 -25 24 -25 29 0 6 -9 18 -19 27 -11 10 -23 31 -26 47 -4 16
-11 29 -16 29 -6 0 -16 16 -24 34 -8 19 -22 39 -31 44 -12 7 -15 17 -9 41 7
34 14 38 33 19 14 -14 14 -11 12 55 -1 26 2 47 7 47 14 0 76 -102 67 -109 -30
-22 -43 -90 -18 -98 7 -2 10 6 6 23 -3 19 -2 25 7 19 7 -4 10 -13 8 -19 -3 -7
-1 -19 4 -27 7 -11 9 -11 9 4 0 9 5 17 11 17 5 0 7 -4 4 -10 -9 -14 13 -50 31
-50 22 0 74 -55 74 -78 0 -11 7 -22 15 -26 8 -3 15 -14 15 -24 0 -10 11 -29
25 -42 30 -28 32 -50 5 -50 -11 0 -20 -4 -20 -10 0 -13 37 -13 45 0 10 16 27
0 22 -21 -5 -17 1 -19 63 -19 48 0 71 4 80 15 16 19 5 32 -14 16 -24 -20 -96
8 -119 47 -10 17 -24 32 -29 32 -6 0 -8 9 -5 20 3 11 1 18 -3 15 -13 -8 -30
29 -30 65 0 26 -3 31 -17 26 -14 -6 -12 -2 5 17 25 27 29 47 7 47 -8 0 -15 5
-15 10 0 6 5 10 10 10 6 0 10 7 10 15 0 9 -6 15 -12 14 -24 -3 -38 1 -38 11 0
6 7 10 15 10 21 0 19 18 -2 22 -10 2 -18 12 -18 23 0 18 -6 20 -51 19 -62 -2
-73 12 -77 92 -1 29 -5 50 -9 47 -5 -2 -8 5 -8 16 0 12 5 21 11 21 7 0 9 10 5
26 -5 19 -1 30 16 45 16 14 19 22 11 25 -9 4 -10 11 -3 25 12 22 35 25 47 6
13 -22 69 -45 98 -39 20 3 34 -3 61 -29 18 -18 36 -31 38 -28 9 9 10 36 2 74
-7 38 -9 39 -22 20 -13 -17 -16 -18 -24 -5 -5 8 -10 22 -10 31 0 9 -7 16 -15
16 -8 0 -15 -6 -15 -14 0 -17 -8 -17 -24 0 -16 16 -35 93 -41 162 -3 44 0 53
23 73 15 13 21 21 15 17 -9 -4 -13 2 -13 19 0 14 4 26 8 26 5 0 6 14 4 32 -4
26 -2 30 11 25 13 -5 16 -1 15 16 -2 23 34 111 49 120 5 3 26 -3 47 -12 40
-19 76 -79 76 -127 0 -13 4 -24 9 -24 5 0 11 -9 14 -20 3 -13 14 -20 30 -20
14 0 29 -4 32 -10 3 -5 10 -10 16 -10 15 0 10 28 -9 47 -24 23 -33 48 -21 60
15 15 2 35 -41 65 -38 26 -40 31 -40 80 -1 29 -7 64 -14 77 -13 23 -14 22 -20
-30 -10 -78 -18 -88 -50 -58 -30 28 -33 39 -10 39 12 0 15 7 12 25 -4 18 -1
25 11 26 12 0 11 2 -4 8 -19 8 -19 8 3 20 16 9 21 18 18 36 -3 15 0 24 7 22 7
-1 12 11 12 30 0 17 3 29 7 27 4 -3 10 8 14 23 3 15 13 33 21 39 7 7 13 16 12
20 -4 21 2 35 11 29 6 -3 10 5 10 19 0 14 5 28 10 31 17 11 11 37 -7 33 -12
-2 -17 -11 -15 -26 2 -17 -1 -20 -13 -16 -13 5 -15 2 -9 -20 5 -20 2 -26 -9
-26 -9 0 -18 -13 -23 -32 -6 -29 -8 -30 -15 -13 -5 14 -8 7 -8 -27 -1 -38 -4
-46 -16 -42 -11 5 -15 -1 -15 -24 0 -16 -7 -35 -15 -42 -8 -7 -12 -17 -9 -22
3 -5 -4 -19 -16 -30 -18 -17 -26 -19 -41 -10 -16 10 -19 8 -25 -16 -9 -43 -12
-49 -14 -27 -2 17 -3 16 -10 -5 -7 -20 -8 -15 -7 22 2 36 5 44 15 36 13 -11
15 -7 12 34 -2 37 13 42 40 11 16 -19 25 -23 28 -14 2 7 -2 17 -9 22 -11 7
-10 9 4 9 10 0 15 5 12 10 -4 7 -13 7 -26 0 -17 -10 -19 -7 -19 20 0 17 -7 38
-15 46 -13 14 -15 12 -17 -13 0 -15 -2 -33 -2 -38 -1 -6 -14 -26 -29 -46 -15
-20 -27 -39 -27 -43 0 -4 -7 -14 -15 -22 -13 -14 -15 -13 -15 4 0 11 7 32 14
48 8 15 12 32 9 37 -4 6 1 8 10 4 10 -3 17 -2 17 3 0 6 -4 10 -10 10 -5 0 -6
8 -3 17 6 14 9 12 20 -12 l14 -30 -6 34 c-3 18 -6 50 -6 70 l-1 36 -8 -30 c-6
-22 -8 -25 -10 -10 -1 11 -8 -2 -15 -30 -7 -27 -14 -43 -15 -35 -1 8 -8 -5
-16 -30 -7 -25 -12 -33 -10 -18 2 15 -1 25 -5 22 -5 -3 -9 -18 -9 -34 0 -15
-6 -30 -14 -33 -7 -3 -17 -27 -21 -53 -4 -29 -10 -43 -15 -35 -10 17 -23 -49
-14 -75 5 -16 4 -17 -5 -3 -6 9 -13 36 -15 60 -4 34 -3 37 3 14 7 -29 8 -28
16 20 6 39 10 46 16 30 6 -16 8 -13 8 13 1 23 -3 31 -11 26 -7 -4 -8 -3 -4 5
4 6 12 9 17 6 5 -4 10 9 10 27 l1 33 7 -30 c7 -28 7 -27 15 18 4 26 11 45 17
42 8 -6 14 23 10 52 -3 20 17 15 22 -4 4 -14 5 -13 6 4 0 12 -3 25 -9 28 -5 3
-10 12 -10 18 0 7 4 6 10 -3 7 -12 10 -8 10 14 0 28 1 29 15 10 14 -18 14 -18
15 4 0 13 7 30 15 38 17 17 20 34 6 34 -5 0 -12 -8 -15 -18 -2 -9 -4 -6 -3 8
2 14 8 24 15 22 6 -1 12 6 13 15 0 15 2 15 9 -2 6 -15 9 -8 9 28 1 35 5 47 16
47 10 0 15 9 14 28 -2 24 -2 25 -6 4 -3 -15 -10 -22 -19 -18 -8 3 -14 -1 -14
-10 0 -8 -4 -12 -10 -9 -5 3 -10 1 -10 -4 0 -6 5 -11 10 -11 6 0 10 -8 9 -17
0 -11 -3 -13 -6 -5 -10 25 -33 12 -33 -19 0 -16 -4 -28 -8 -25 -4 2 -7 -12 -5
-32 2 -31 1 -33 -6 -12 -8 25 -8 25 -15 -8 -4 -18 -12 -30 -17 -26 -5 3 -9 -6
-9 -20 0 -20 -5 -26 -21 -26 -15 0 -19 4 -15 16 3 9 6 25 7 37 0 12 3 16 6 9
8 -19 23 -3 24 26 l1 27 9 -25 c7 -21 8 -18 4 13 -2 26 0 35 7 31 7 -5 9 -1 5
9 -3 9 0 23 8 30 7 8 16 36 19 63 4 34 3 43 -3 29 -5 -11 -10 -33 -11 -50 -2
-30 -2 -30 -10 -5 -8 24 -8 24 -9 -7 -1 -26 -4 -30 -21 -26 -21 5 -26 -6 -12
-23 5 -5 5 -22 1 -39 -4 -20 -7 -23 -8 -10 -1 17 -3 18 -11 5 -5 -8 -10 -26
-11 -40 0 -22 -1 -23 -8 -5 -6 15 -9 10 -15 -23 l-6 -43 -27 21 c-26 20 -28
20 -34 3 -7 -17 -8 -16 -8 2 -1 17 -3 17 -11 5 -6 -9 -10 -10 -10 -3 0 7 9 17
20 23 14 7 20 7 20 0 0 -21 30 -9 31 13 1 21 1 21 8 -3 7 -22 9 -20 16 20 4
25 10 39 13 31 3 -9 9 -4 17 15 9 21 9 33 1 43 -8 11 -8 15 2 18 6 3 12 18 12
34 0 18 -4 28 -10 24 -6 -4 -8 -10 -5 -15 3 -5 -4 -14 -15 -20 -18 -10 -20 -8
-20 22 0 22 3 28 9 20 6 -10 10 -4 15 20 5 26 9 30 16 18 7 -11 10 1 10 38 0
31 4 51 10 47 5 -3 7 -13 4 -23 -5 -14 -4 -15 5 -2 6 8 11 24 11 35 0 17 2 18
11 5 8 -12 9 -10 4 7 -8 29 4 51 16 32 6 -10 9 -5 9 14 0 16 -4 26 -9 22 -14
-8 -71 -94 -71 -106 0 -6 -4 -7 -10 -4 -6 4 -10 -9 -11 -32 -1 -37 -2 -37 -8
-8 -6 27 -8 25 -15 -25 -6 -43 -10 -51 -16 -35 -8 19 -9 19 -9 -3 -1 -14 -5
-21 -12 -16 -8 4 -9 0 -4 -15 3 -11 3 -21 -1 -21 -9 0 -33 32 -34 45 0 6 5 3
10 -5 8 -12 10 -10 10 10 0 19 3 21 9 11 7 -11 11 -5 16 22 4 20 11 34 16 31
5 -3 9 4 9 15 0 11 4 22 9 25 5 3 7 15 4 26 -7 25 -23 16 -24 -13 0 -18 -2
-17 -11 7 -8 22 -8 31 1 34 6 2 11 10 11 18 0 8 7 17 15 20 8 4 15 15 15 25 0
10 5 19 10 19 6 0 10 6 10 14 0 8 3 16 8 18 16 7 72 83 72 98 -1 12 -3 12 -14
-3 -7 -9 -18 -17 -25 -17 -6 0 -11 -9 -11 -20 0 -11 -7 -23 -15 -26 -8 -4 -15
-11 -15 -18 0 -6 -9 -18 -20 -26 -11 -8 -20 -18 -20 -23 0 -14 -70 -107 -81
-107 -9 0 39 100 53 111 16 11 88 113 88 123 -1 6 -13 -4 -29 -21 -15 -18 -31
-33 -34 -33 -14 0 -6 27 13 48 11 12 20 27 20 34 0 14 -119 -111 -120 -126 0
-5 -11 -19 -24 -31 -14 -13 -34 -39 -44 -59 -23 -43 -65 -82 -70 -66 -2 6 10
24 26 41 16 17 38 46 48 65 10 19 24 34 31 34 7 0 13 6 13 14 0 8 19 36 43 62
84 96 139 164 132 164 -3 0 -24 -19 -46 -41 -22 -23 -43 -38 -47 -34 -4 3 1
12 11 19 9 7 17 17 17 21 0 12 -42 46 -49 39 -3 -3 3 -12 13 -20 19 -14 18
-16 -22 -57 -70 -71 -182 -190 -208 -221 -13 -17 -24 -25 -24 -19 0 11 10 23
108 132 37 40 74 84 82 97 8 13 20 24 27 24 7 0 13 5 13 10 0 16 -41 -8 -67
-39 -13 -14 -23 -21 -23 -14 0 6 5 15 11 18 6 4 8 13 5 20 -2 7 3 12 12 11 11
-1 16 5 14 16 -2 13 3 17 20 15 15 -1 23 3 23 13 0 8 6 20 14 26 8 6 10 13 5
17 -11 6 -110 -81 -106 -95 1 -5 -2 -7 -8 -3 -8 5 -32 -13 -104 -80 -6 -6 -28
-24 -49 -40 -33 -24 -42 -27 -58 -16 -19 11 -20 10 -14 -21 5 -29 0 -39 -37
-78 -24 -26 -59 -65 -78 -89 -67 -83 -85 -101 -97 -101 -7 0 -13 7 -13 15 0 8
-4 15 -10 15 -5 0 -10 13 -10 29 0 28 -22 61 -40 61 -9 0 -4 -22 9 -45 3 -5 6
-26 6 -47 1 -38 21 -72 37 -62 5 3 4 -3 -4 -15 -13 -21 -13 -21 -22 -1 -10 23
-31 28 -23 5 4 -8 1 -17 -4 -21 -6 -3 -8 -17 -5 -30 7 -25 -11 -30 -26 -9 -5
6 -8 3 -8 -7 0 -9 6 -18 13 -21 6 -2 9 -8 5 -12 -13 -14 -36 15 -41 53 -3 20
-10 67 -16 104 -13 83 -21 157 -26 272 -3 49 -10 95 -16 102 -6 7 -9 37 -7 66
2 39 0 52 -10 50 -9 -2 -10 3 -4 15 13 25 8 150 -8 198 -15 47 -46 90 -54 76
-4 -5 -3 -12 2 -15 5 -3 9 -29 11 -58 1 -29 -1 -50 -4 -46 -4 4 -7 23 -7 42 0
35 -12 48 -21 24 -2 -7 -8 -10 -12 -6 -4 4 -2 14 4 22 10 12 9 14 -6 10 -13
-4 -19 0 -19 13 -2 33 -12 70 -28 102 -16 29 -16 31 3 31 15 0 22 14 35 68 10
37 28 95 42 128 13 34 22 68 19 76 -4 9 1 18 9 21 9 4 16 18 16 32 0 14 5 25
10 25 6 0 10 8 10 18 0 9 7 31 16 47 25 45 45 135 31 135 -9 0 -9 2 0 8 7 4
19 32 27 62 8 30 19 67 24 81 6 15 9 35 6 45 -2 11 5 37 16 59 l19 40 -3 -70
c-2 -54 -16 -109 -59 -234 -32 -91 -57 -167 -57 -170 0 -4 19 26 43 64 50 84
150 228 230 331 88 114 146 194 142 194 -2 0 6 10 18 23 12 13 58 70 102 128
44 57 84 110 90 117 5 7 18 21 27 30 10 9 18 20 18 24 0 13 59 90 80 105 11 8
20 21 20 29 0 8 16 30 36 49 19 19 33 39 30 43 -3 5 6 14 19 20 14 7 25 16 25
22 0 5 22 33 50 62 27 29 50 56 50 61 0 18 37 4 52 -21 21 -35 58 -69 58 -53
0 7 5 9 11 5 8 -5 8 -9 -1 -14 -9 -6 1 -26 36 -73 46 -63 74 -86 39 -34 -9 14
-12 27 -8 29 4 3 2 3 -4 2 -8 -2 -13 6 -13 20 0 14 -5 26 -11 28 -6 2 -12 16
-11 31 0 15 -5 27 -10 27 -5 0 -6 6 -1 13 4 6 6 20 5 30 -5 30 31 19 61 -17
15 -19 27 -42 27 -50 0 -8 5 -18 11 -22 13 -8 62 -112 65 -137 2 -23 14 -35
14 -14 0 10 5 17 10 17 6 0 10 -8 10 -18 0 -10 7 -44 15 -77 13 -47 13 -60 3
-67 -9 -6 -7 -8 7 -6 12 2 21 -4 23 -16 3 -13 0 -16 -9 -11 -8 5 -10 4 -5 -3
4 -7 24 -12 44 -11 20 0 31 3 25 6 -20 8 -15 23 7 23 17 0 20 -7 20 -49 0 -47
-12 -72 -24 -52 -4 5 -2 12 4 16 19 12 10 22 -20 22 -27 0 -29 -2 -15 -17 8
-9 15 -25 15 -34 0 -13 5 -16 16 -12 11 4 15 2 11 -7 -9 -23 6 -35 43 -37 19
-1 40 -2 45 -1 6 1 10 26 10 56 0 46 -3 55 -17 55 -15 0 -18 9 -18 48 0 27
-11 73 -25 107 -14 33 -25 71 -25 86 0 14 -5 30 -12 37 -7 7 -12 37 -12 67 -1
30 -4 55 -8 55 -25 0 13 118 49 154 14 14 34 26 43 26 19 0 90 -80 90 -101 0
-7 3 -10 6 -6 4 3 38 -37 76 -90 38 -53 75 -102 81 -109 23 -26 34 -40 38 -49
2 -6 22 -36 43 -68 37 -54 40 -57 57 -41 21 19 26 10 -68 109 -13 13 -23 28
-23 33 0 5 -11 21 -24 35 -13 14 -22 28 -20 30 3 2 -2 10 -11 17 -8 7 -15 18
-15 25 0 7 -7 16 -16 19 -14 5 -11 12 17 38 l33 32 10 -25 c6 -13 13 -26 16
-29 4 -3 9 -13 13 -23 3 -9 13 -17 21 -17 7 0 21 -15 30 -34 9 -19 28 -44 41
-54 14 -11 25 -27 25 -36 0 -10 12 -28 28 -41 15 -13 24 -27 20 -31 -5 -4 -16
1 -27 10 -21 20 -33 10 -25 -21 4 -12 17 -24 32 -28 25 -6 92 -70 92 -88 0 -4
18 -53 40 -109 35 -87 39 -106 30 -131 -5 -17 -8 -32 -5 -35 2 -3 0 -13 -5
-22 -8 -15 -13 -45 -22 -128 -1 -8 -12 -18 -25 -23 -27 -10 -31 -21 -5 -17 13
2 16 -3 14 -27 -4 -46 -10 -55 -32 -55 -11 0 -20 -4 -20 -10 0 -5 9 -10 21
-10 12 0 19 -5 16 -12 -2 -7 -13 -13 -24 -12 -11 0 -20 -7 -20 -18 -2 -21 8
-23 25 -6 9 9 12 8 12 -5 0 -10 -11 -22 -25 -27 -34 -13 -32 -29 3 -22 24 5
26 4 13 -12 -8 -9 -15 -32 -16 -50 -3 -46 -12 -57 -41 -50 -18 5 -24 2 -24
-10 0 -19 13 -20 42 -5 17 9 19 8 16 -8 -2 -11 -12 -18 -28 -19 -14 0 -34 -5
-45 -12 -17 -9 -14 -11 23 -9 45 3 57 -14 23 -33 -23 -12 -31 -13 -30 -2 3 18
-2 24 -14 13 -10 -8 -19 -7 -32 3 -18 13 -18 19 -7 77 6 35 19 123 28 194 8
72 19 156 23 188 5 38 3 90 -5 145 -7 48 -13 121 -14 163 0 63 -3 79 -20 94
-24 22 -35 13 -35 -28 0 -44 -19 -50 -22 -7 -4 50 -15 55 -67 32 -60 -27 -63
-58 -5 -53 9 1 19 -6 23 -15 5 -13 2 -15 -14 -11 -26 7 -25 1 5 -48 53 -88 56
-95 50 -128 -4 -18 -21 -49 -39 -68 -18 -18 -35 -42 -39 -51 -9 -24 -53 -34
-74 -17 -15 13 -16 11 -10 -23 6 -38 -6 -61 -17 -33 -8 23 -26 18 -23 -6 1
-12 -4 -24 -11 -26 -7 -3 -10 1 -7 9 3 8 -3 23 -15 33 -11 10 -20 28 -20 40 0
27 -21 47 -39 36 -10 -6 -6 -19 16 -55 16 -25 33 -43 37 -39 5 5 5 -2 2 -14
-4 -13 -4 -23 1 -23 5 0 19 -22 32 -50 13 -27 27 -47 32 -44 5 3 6 -1 4 -8 -3
-8 2 -22 10 -33 16 -19 16 -19 11 7 -5 21 -3 26 7 22 9 -3 23 12 38 40 33 64
47 65 39 5 -8 -63 3 -64 18 -2 10 46 11 45 6 -27 -3 -41 -12 -103 -21 -138
l-16 -62 33 -63 c19 -34 36 -64 39 -67 3 -3 7 -10 8 -17 2 -7 19 -40 39 -75
20 -35 33 -54 29 -43 -4 11 -9 31 -11 45 -4 22 -3 23 5 5 5 -11 10 -14 10 -7
1 6 7 12 15 12 7 0 19 7 26 15 7 8 27 15 45 15 27 0 35 -5 45 -29 6 -16 20
-37 31 -47 10 -9 19 -21 19 -25 0 -9 47 -81 58 -89 4 -3 13 -17 19 -32 7 -16
17 -28 23 -28 5 0 10 -11 10 -24 0 -14 9 -31 21 -39 11 -8 21 -22 23 -30 1 -9
11 -26 21 -37 11 -12 25 -34 32 -48 9 -21 12 74 12 451 1 323 -2 477 -9 477
-7 0 -7 6 0 19 5 11 10 50 10 86 0 65 -2 70 -55 147 -30 44 -55 82 -55 85 0 2
-6 10 -12 17 -15 16 -44 57 -90 131 -7 11 -15 22 -18 25 -3 3 -17 21 -30 40
-13 19 -28 38 -33 41 -5 3 -16 18 -25 31 -63 95 -116 169 -147 203 -19 22 -35
45 -35 52 0 6 -6 18 -13 25 -6 7 -30 39 -52 72 -22 32 -50 69 -62 82 -12 13
-24 31 -27 41 -3 10 -23 37 -45 60 -21 24 -45 55 -52 71 -8 16 -27 44 -42 63
-15 19 -52 72 -81 119 -30 47 -61 93 -70 102 -9 10 -16 29 -16 42 0 13 -6 26
-13 29 -8 3 -26 31 -42 64 -16 32 -31 60 -34 63 -6 4 -20 37 -45 100 -4 8 -15
30 -26 47 -30 50 -62 189 -58 252 2 37 -1 56 -9 58 -7 3 -13 0 -13 -6 0 -6
-18 -11 -40 -11 -37 0 -52 11 -31 24 8 5 8 13 -4 89 -6 36 -7 37 -45 37 -28 0
-40 4 -40 15 0 7 -8 19 -17 24 -17 10 -17 10 0 11 15 0 17 11 17 80 0 64 3 80
15 80 11 0 15 11 15 40 0 22 5 40 10 40 6 0 10 33 10 80 0 47 4 80 10 80 6 0
11 48 11 123 1 67 4 110 6 95 5 -35 16 -35 42 -2 15 19 26 24 43 20 13 -3 17
-3 11 0 -19 8 -17 84 2 84 11 0 15 11 15 40 0 22 5 40 10 40 6 0 10 33 10 80
0 47 4 80 10 80 6 0 10 18 10 40 0 38 2 40 30 40 28 0 30 2 30 39 0 36 -3 40
-27 44 -20 3 -15 4 15 6 41 1 42 2 42 36 0 25 4 35 15 35 11 0 14 7 9 25 -3
14 -2 25 4 25 19 0 82 -30 82 -40 0 -16 70 -24 95 -10 13 7 28 9 34 6 6 -4 24
0 42 9 31 17 56 12 29 -5 -30 -19 2 -9 42 13 44 23 88 61 88 74 0 4 14 23 31
41 17 18 43 61 59 95 25 56 28 73 27 169 0 73 -3 105 -11 102 -13 -5 -37 42
-30 61 6 15 -27 73 -40 71 -18 -2 -26 58 -15 112 l10 52 45 0 c35 0 44 4 44
18 1 26 35 62 62 63 21 0 20 2 -9 16 -18 9 -33 20 -33 24 0 4 17 14 38 22 20
9 31 16 25 16 -9 1 -13 16 -12 44 1 23 4 32 6 20 2 -13 8 -23 13 -23 17 0 40
45 40 80 0 39 18 74 27 53 2 -7 16 -13 29 -13 21 0 24 4 24 40 0 29 4 40 15
40 11 0 15 11 15 40 0 40 0 40 39 40 39 0 40 -1 44 -37 3 -24 3 -20 2 10 -2
41 2 52 26 77 16 15 34 30 41 32 6 2 -3 10 -20 17 -40 17 -40 25 -3 41 17 6
48 30 70 52 l41 40 0 1063 0 1063 -40 -2 c-22 -1 -40 1 -40 6 0 4 -18 8 -39 8
-36 0 -40 -3 -44 -27 -3 -20 -4 -15 -6 15 0 23 4 42 9 42 6 0 9 19 9 43 -2 29
-3 34 -6 15 -4 -25 -8 -28 -44 -28 -22 0 -39 5 -39 11 0 16 -31 38 -52 39 -13
0 -18 11 -20 42 l-3 42 -87 -3 -88 -3 0 41 c0 30 -4 41 -15 41 -11 0 -15 -11
-15 -39 0 -38 -23 -72 -38 -56 -4 4 -1 10 6 12 6 3 12 21 12 42 0 30 7 42 40
71 45 39 49 50 20 50 -11 0 -20 4 -20 9 0 5 -14 16 -30 25 -25 12 -30 12 -30
1 0 -8 10 -21 22 -29 18 -13 19 -18 8 -31 -10 -12 -23 -14 -57 -9 -30 4 -43 3
-43 -6 0 -6 9 -14 20 -17 20 -5 28 -23 11 -23 -37 0 -59 54 -27 66 11 4 12 12
1 48 -12 39 -11 43 6 55 27 16 36 7 31 -31 -5 -30 -3 -32 12 -19 9 7 16 20 16
28 0 13 3 13 15 3 20 -17 53 0 80 40 24 35 30 36 73 10 37 -23 41 -40 10 -41
-22 0 -22 -1 -3 -8 11 -5 28 -5 37 0 9 5 30 9 47 9 29 0 31 2 31 40 0 26 4 40
13 40 7 0 21 6 32 14 18 13 18 14 -1 39 -10 15 -25 27 -31 27 -7 0 -13 4 -13
10 0 5 -9 14 -20 20 -18 9 -25 6 -50 -20 -29 -31 -55 -34 -43 -5 3 8 0 15 -6
15 -6 0 -11 9 -11 20 0 11 5 20 10 20 6 0 10 9 10 19 0 11 -4 23 -10 26 -5 3
-10 26 -10 50 0 24 4 47 10 50 13 8 13 52 0 60 -15 9 -12 19 11 44 12 12 18
25 14 29 -4 4 -10 1 -12 -5 -9 -24 -23 -13 -23 17 0 20 5 30 15 30 8 0 15 5
15 10 0 6 -7 10 -15 10 -8 0 -15 5 -15 10 0 6 17 10 38 10 21 0 47 7 58 15 24
18 61 19 67 3 3 -9 10 -8 26 6 28 25 27 36 -4 36 -31 0 -33 17 -2 22 28 4 29
32 1 36 -13 2 -25 -6 -34 -23 -20 -37 -29 -31 -36 25 -4 32 -11 50 -20 50 -8
0 -14 10 -14 25 0 16 6 25 16 25 8 0 30 11 48 25 47 36 86 32 65 -6 -8 -16 -6
-19 15 -19 22 0 24 3 20 43 -3 30 -2 35 4 17 10 -31 34 -32 47 -3 7 16 16 21
30 18 11 -3 14 -2 8 1 -18 8 -16 41 2 48 17 6 20 33 5 38 -11 4 -1 78 10 78 5
0 11 -18 15 -40 8 -47 21 -44 31 7 5 27 3 38 -10 45 -20 11 -21 37 -1 44 13 5
15 47 15 295 l0 289 -3600 0 -3600 0 0 -5215z m7140 4650 c0 -12 -19 -12 -23
0 -4 9 -1 12 9 8 7 -3 14 -7 14 -8z m-115 -15 c3 -6 -1 -13 -10 -16 -19 -8
-30 0 -20 15 8 14 22 14 30 1z m93 -37 c2 -7 -3 -13 -12 -13 -9 0 -16 -4 -16
-10 0 -5 -8 -10 -17 -10 -14 0 -15 2 -4 9 9 6 10 11 2 15 -6 4 -9 12 -5 17 8
14 46 7 52 -8z m-118 -38 c-10 -12 -16 -13 -26 -4 -12 10 -11 14 3 25 23 16
41 1 23 -21z m-57 18 c-7 -2 -19 -2 -25 0 -7 3 -2 5 12 5 14 0 19 -2 13 -5z
m173 -70 c-11 -11 -19 6 -11 24 8 17 8 17 12 0 3 -10 2 -21 -1 -24z m-121 7
c0 -8 -8 -16 -17 -18 -13 -2 -18 3 -18 18 0 15 5 20 18 18 9 -2 17 -10 17 -18z
m48 0 c-4 -15 0 -20 16 -20 25 0 28 -18 4 -27 -10 -4 -22 -11 -26 -17 -5 -6
-5 0 -2 13 5 15 2 26 -6 31 -10 7 -10 11 0 24 18 21 20 20 14 -4z m-42 -70 c5
0 9 -7 9 -15 0 -21 -14 -19 -36 7 -18 20 -18 21 -1 15 10 -4 23 -7 28 -7z
m-41 -20 c0 -5 -7 -10 -16 -10 -8 0 -12 5 -9 10 3 6 10 10 16 10 5 0 9 -4 9
-10z m-47 -17 c-7 -2 -19 -2 -25 0 -7 3 -2 5 12 5 14 0 19 -2 13 -5z m-258
-12 c3 -5 1 -12 -5 -16 -5 -3 -10 1 -10 9 0 18 6 21 15 7z m65 -121 c0 -11 -4
-20 -9 -20 -5 0 -7 9 -4 20 3 11 7 20 9 20 2 0 4 -9 4 -20z m180 -72 c0 -18 5
-28 15 -28 8 0 15 -4 15 -8 0 -5 -29 -9 -65 -10 -38 -1 -65 2 -65 8 0 5 -7 10
-15 10 -22 0 -19 27 4 40 29 15 34 13 29 -15 -4 -19 -1 -25 12 -25 13 0 17 6
13 21 -4 14 0 22 14 25 15 4 19 12 16 32 l-4 27 15 -25 c8 -14 15 -37 16 -52z
m-180 7 c0 -8 -7 -15 -15 -15 -26 0 -18 20 13 29 1 1 2 -6 2 -14z m20 -155 c0
-32 4 -40 18 -40 13 0 22 -12 30 -39 20 -64 17 -71 -28 -71 -22 0 -40 5 -40
10 0 6 -18 10 -40 10 -30 0 -40 4 -40 16 0 12 3 14 13 6 17 -14 40 21 32 49
-8 23 -45 26 -45 3 0 -14 -3 -14 -15 -4 -21 17 -19 37 6 68 l22 27 -7 -27 c-3
-16 -3 -28 1 -29 69 -7 73 -5 73 29 0 17 5 32 10 32 6 0 10 -18 10 -40z m-260
15 c0 -8 -9 -15 -20 -15 -11 0 -20 7 -20 15 0 8 9 15 20 15 11 0 20 -7 20 -15z
m221 2 c-1 -12 -15 -9 -19 4 -3 6 1 10 8 8 6 -3 11 -8 11 -12z m-111 -148 c0
-5 -7 -6 -15 -3 -8 4 -15 13 -15 21 0 13 3 13 15 3 8 -7 15 -16 15 -21z m0
-58 c0 -5 -10 -11 -22 -14 -22 -6 -22 -6 -4 8 23 17 26 18 26 6z m195 -32 c6
-19 -7 -39 -25 -39 -3 0 -11 4 -19 9 -19 12 -4 51 19 51 10 0 22 -10 25 -21z
m-84 -12 c-13 -13 -26 -3 -16 12 3 6 11 8 17 5 6 -4 6 -10 -1 -17z m209 -131
c0 -2 -9 -6 -20 -9 -11 -3 -20 -1 -20 4 0 5 9 9 20 9 11 0 20 -2 20 -4z m50
-36 c0 -5 -7 -10 -15 -10 -8 0 -15 5 -15 10 0 6 7 10 15 10 8 0 15 -4 15 -10z
m-164 -37 c-10 -10 -19 5 -10 18 6 11 8 11 12 0 2 -7 1 -15 -2 -18z m-556 7
c0 -5 -10 -10 -22 -10 -19 0 -20 2 -8 10 19 13 30 13 30 0z m400 0 c0 -5 -5
-10 -11 -10 -5 0 -7 5 -4 10 3 6 8 10 11 10 2 0 4 -4 4 -10z m200 0 c0 -5 -7
-10 -16 -10 -8 0 -12 5 -9 10 3 6 10 10 16 10 5 0 9 -4 9 -10z m70 -6 c0 -2
-9 -4 -20 -4 -11 0 -20 4 -20 9 0 5 9 7 20 4 11 -3 20 -7 20 -9z m-245 -50
c13 -5 14 -8 3 -15 -19 -13 -28 -11 -28 6 0 17 2 18 25 9z m-245 -25 c0 -5 -4
-9 -10 -9 -5 0 -10 7 -10 16 0 8 5 12 10 9 6 -3 10 -10 10 -16z m125 -17 c-11
-11 -34 8 -28 24 6 15 7 15 20 -1 7 -10 11 -21 8 -23z m-18 -48 c-3 -3 -12 -4
-19 -1 -8 3 -5 6 6 6 11 1 17 -2 13 -5z m-207 -80 c0 -8 -5 -12 -10 -9 -6 4
-8 11 -5 16 9 14 15 11 15 -7z m-30 2 c0 -3 -4 -8 -10 -11 -5 -3 -10 -1 -10 4
0 6 5 11 10 11 6 0 10 -2 10 -4z m-53 -112 c-3 -3 -12 -4 -19 -1 -8 3 -5 6 6
6 11 1 17 -2 13 -5z m559 -31 c-3 -3 -13 -2 -23 2 -17 7 -17 8 2 15 19 7 34
-5 21 -17z m1 -39 c-3 -3 -12 -4 -19 -1 -8 3 -5 6 6 6 11 1 17 -2 13 -5z m163
-84 c0 -11 -4 -20 -9 -20 -11 0 -22 26 -14 34 12 12 23 5 23 -14z m175 -70 c3
-5 1 -10 -4 -10 -6 0 -11 5 -11 10 0 6 2 10 4 10 3 0 8 -4 11 -10z m50 0 c3
-5 -1 -10 -9 -10 -9 0 -16 5 -16 10 0 6 4 10 9 10 6 0 13 -4 16 -10z m-85 -19
c0 -17 -18 -21 -24 -6 -3 9 0 15 9 15 8 0 15 -4 15 -9z m-220 -1786 c0 -8 -9
-15 -20 -15 -20 0 -26 11 -13 23 12 13 33 7 33 -8z m-40 -56 c0 -6 -9 -13 -20
-16 -13 -3 -20 -14 -20 -29 0 -13 -4 -24 -10 -24 -5 0 -10 -5 -10 -11 0 -7
-22 -33 -50 -59 -29 -27 -50 -56 -50 -68 0 -11 -9 -27 -19 -34 -11 -8 -28 -36
-39 -63 -19 -49 -44 -76 -58 -62 -12 12 49 136 68 137 23 0 48 38 48 72 0 17
8 33 20 40 11 7 20 18 20 25 0 7 3 12 8 11 15 -3 42 15 42 27 0 36 20 65 45
65 14 0 25 -5 25 -11z m196 -386 c-10 -10 -19 5 -10 18 6 11 8 11 12 0 2 -7 1
-15 -2 -18z m-489 -21 c-10 -10 -17 -28 -17 -40 0 -11 -11 -34 -25 -50 -14
-17 -25 -35 -25 -41 0 -6 -4 -11 -9 -11 -5 0 -15 -17 -22 -37 -7 -21 -22 -45
-34 -55 -13 -10 -26 -29 -29 -43 -4 -14 -11 -25 -16 -25 -5 0 -7 -6 -4 -14 3
-7 -7 -28 -22 -45 -25 -30 -26 -37 -22 -101 3 -38 1 -67 -3 -64 -17 10 -9 -10
14 -34 14 -16 22 -36 22 -60 0 -31 4 -38 23 -40 13 -2 22 -10 22 -21 0 -14 6
-17 28 -14 20 3 23 2 13 -6 -12 -8 -10 -11 12 -16 15 -4 32 -16 38 -26 12 -22
34 -26 25 -4 -11 31 14 14 30 -20 9 -19 24 -35 33 -35 25 0 79 -56 86 -90 9
-42 -1 -92 -23 -116 -10 -10 -36 -46 -59 -79 -23 -33 -49 -69 -60 -80 -10 -11
-34 -41 -53 -67 -58 -77 -142 -106 -167 -58 -10 21 -10 26 1 28 8 2 16 21 20
43 3 21 10 39 15 39 5 0 11 13 14 29 3 16 13 36 22 44 8 9 15 32 15 51 0 20 5
36 10 36 19 0 10 28 -15 44 -18 12 -25 26 -25 49 -1 19 -12 48 -30 72 -17 22
-33 48 -36 58 -4 9 -10 17 -15 17 -5 0 -9 6 -9 14 0 7 -7 19 -15 26 -8 7 -15
23 -15 36 0 13 -10 34 -21 45 -18 18 -21 29 -16 71 5 40 67 188 87 208 13 13
30 52 30 70 0 11 9 29 20 40 11 11 20 27 20 35 0 8 7 15 15 15 8 0 15 8 16 18
0 14 2 14 8 -3 7 -16 10 -12 15 23 5 26 13 42 22 42 8 0 14 6 14 14 0 8 12 24
27 36 20 15 24 23 15 29 -10 6 -10 11 3 21 8 7 15 23 15 36 0 16 7 24 23 26
30 5 33 1 14 -20z m53 -612 c0 -5 -5 -10 -11 -10 -5 0 -7 5 -4 10 3 6 8 10 11
10 2 0 4 -4 4 -10z m-3200 -600 c-5 -16 -12 -35 -16 -41 -5 -9 -2 -10 9 -6 13
5 17 1 17 -14 0 -11 5 -17 10 -14 14 9 12 -10 -4 -50 -15 -34 -15 -35 10 -35
13 0 24 -4 24 -10 0 -5 -5 -10 -11 -10 -5 0 -8 -4 -5 -9 4 -5 0 -12 -6 -15 -7
-3 12 -3 42 -1 38 3 50 2 40 -5 -8 -5 -26 -10 -40 -10 -14 0 -32 -5 -40 -10
-11 -7 -7 -10 20 -11 21 -1 27 -3 15 -6 -34 -8 -40 -22 -7 -18 17 2 34 0 37
-6 4 -5 2 -9 -4 -9 -6 0 -7 -7 -4 -17 4 -10 2 -14 -5 -9 -6 3 -13 2 -17 -4 -3
-5 2 -10 11 -10 16 0 16 -1 -2 -15 -13 -10 -15 -14 -5 -15 8 0 12 -3 8 -6 -9
-10 19 -34 40 -34 33 0 63 -12 57 -22 -4 -6 4 -8 23 -4 33 8 212 -11 227 -23
6 -5 37 -11 69 -13 33 -3 62 -9 65 -14 11 -15 51 -34 71 -34 11 0 26 -7 34
-15 8 -8 35 -17 59 -21 23 -4 57 -12 73 -19 17 -7 56 -20 88 -30 31 -9 57 -20
57 -25 0 -4 16 -11 35 -14 19 -4 35 -10 35 -14 0 -6 15 -13 86 -42 35 -14 150
-117 186 -167 36 -51 98 -189 98 -220 0 -11 4 -23 9 -28 17 -18 30 -158 41
-426 10 -251 25 -393 65 -604 43 -224 56 -537 30 -730 -8 -60 -22 -164 -31
-230 -19 -145 -39 -248 -65 -335 -25 -82 -111 -261 -155 -323 -19 -26 -34 -50
-34 -53 0 -5 -14 -24 -80 -108 -78 -99 -216 -246 -235 -250 -4 0 -30 -23 -58
-50 -29 -27 -79 -70 -112 -97 -33 -27 -76 -64 -95 -81 -19 -18 -52 -42 -73
-52 -20 -11 -37 -23 -37 -28 0 -4 -8 -8 -18 -8 -9 0 -23 -9 -30 -20 -7 -11
-23 -20 -36 -20 -13 0 -26 -5 -28 -11 -4 -12 -134 -43 -233 -54 -65 -7 -216
-17 -271 -17 -98 0 -299 52 -323 83 -7 11 -21 19 -31 19 -9 0 -39 9 -66 19
-27 11 -61 22 -76 25 -29 7 -118 84 -118 104 0 6 -3 12 -7 12 -5 0 -26 27 -48
60 -22 33 -43 60 -46 60 -3 0 -12 18 -19 40 -7 22 -19 45 -27 51 -7 6 -13 16
-13 22 0 6 -7 18 -16 28 -9 10 -26 36 -38 59 -12 23 -27 40 -32 38 -5 -1 -8
-6 -7 -10 2 -4 -6 -12 -17 -18 -15 -8 -24 -6 -40 10 -11 11 -26 17 -35 14 -11
-4 -20 5 -30 32 -9 22 -26 59 -38 84 -12 25 -20 48 -19 53 1 4 -1 7 -6 7 -4 0
-26 24 -50 53 -23 30 -54 60 -68 67 -27 15 -84 92 -84 114 0 8 -7 19 -16 27
-9 7 -23 30 -31 51 -8 21 -21 38 -29 38 -8 0 -19 9 -26 20 -7 11 -21 20 -30
20 -10 0 -20 10 -24 25 -3 14 -13 29 -21 34 -10 5 -16 25 -17 54 -1 25 -9 54
-18 64 -8 10 -13 24 -11 31 3 7 -4 33 -16 57 -11 24 -23 74 -26 111 -3 36 -10
75 -15 85 -6 10 -10 27 -10 38 0 12 -8 29 -19 40 -12 12 -16 23 -10 32 5 8 8
23 8 34 0 11 -3 14 -6 7 -3 -8 -10 -5 -22 10 -29 38 -42 189 -30 347 11 136
29 240 69 401 39 152 37 229 -4 148 l-16 -33 0 31 c0 43 21 84 45 85 18 0 18
1 -2 9 -28 11 -30 30 -4 30 28 0 37 20 12 27 -19 5 -19 7 -6 26 8 12 15 28 15
37 0 8 9 32 20 53 28 52 52 158 39 173 -6 8 -5 14 6 18 13 5 15 17 9 73 -13
121 -11 203 3 203 7 0 14 10 14 23 3 56 27 127 57 166 14 19 25 47 25 63 0 19
3 24 9 16 6 -10 8 -10 8 1 0 7 9 23 19 35 11 11 41 46 67 76 26 30 63 68 81
84 22 19 30 32 22 36 -6 5 12 20 47 39 66 36 76 38 67 14 -6 -15 -5 -16 9 -3
9 8 14 17 12 19 -6 6 92 46 131 54 17 3 39 9 50 12 16 6 17 5 5 -4 -24 -17 4
-13 55 9 26 11 55 20 65 20 9 0 22 6 28 13 9 11 -1 11 -56 1 -37 -7 -81 -17
-98 -22 -17 -5 -37 -7 -43 -3 -7 4 14 13 46 20 32 7 69 15 83 19 14 3 34 6 45
7 11 1 35 5 53 9 40 10 57 31 18 24 -14 -3 -26 -1 -26 3 0 5 26 9 58 9 37 0
52 3 43 9 -10 6 2 12 40 19 104 21 198 24 285 11 73 -11 87 -10 94 2 5 7 24
19 42 26 30 11 31 12 8 13 -14 1 -34 6 -45 11 -14 6 -8 7 23 3 33 -4 42 -3 42
9 0 10 -9 13 -27 11 -16 -2 -20 -1 -10 2 22 7 12 24 -14 24 -12 0 -17 4 -14
11 4 6 13 8 21 5 8 -3 14 1 14 10 0 12 6 15 23 11 21 -6 21 -6 3 8 -14 11 -16
15 -5 15 11 0 11 2 1 9 -11 7 -11 9 2 14 8 3 17 1 19 -6 2 -7 8 -9 12 -5 4 4
2 14 -5 23 -18 21 -6 29 21 15 18 -10 21 -10 16 1 -3 8 -8 21 -11 30 -5 10 0
19 14 25 18 8 22 20 26 68 4 64 9 76 29 76 10 0 12 -7 5 -30z m137 -226 c-3
-3 -12 -4 -19 -1 -8 3 -5 6 6 6 11 1 17 -2 13 -5z m-10 -80 c-3 -3 -12 -4 -19
-1 -8 3 -5 6 6 6 11 1 17 -2 13 -5z m-17 -54 c0 -5 -2 -10 -4 -10 -3 0 -8 5
-11 10 -3 6 -1 10 4 10 6 0 11 -4 11 -10z m97 -26 c-3 -3 -12 -4 -19 -1 -8 3
-5 6 6 6 11 1 17 -2 13 -5z m2393 -124 c0 -13 -7 -20 -20 -20 -23 0 -26 10 -8
28 18 18 28 15 28 -8z m0 -80 c0 -13 -7 -20 -20 -20 -23 0 -26 10 -8 28 18 18
28 15 28 -8z m-1036 -496 c3 -8 2 -12 -4 -9 -6 3 -10 10 -10 16 0 14 7 11 14
-7z m826 -320 c0 -2 -7 -4 -15 -4 -8 0 -15 4 -15 10 0 5 7 7 15 4 8 -4 15 -8
15 -10z m-3900 -8 c0 -11 -19 -15 -25 -6 -3 5 1 10 9 10 9 0 16 -2 16 -4z
m3220 -83 c0 -32 -5 -28 -14 10 -4 19 -3 26 4 22 5 -3 10 -18 10 -32z m-3363
-425 c-3 -7 -5 -2 -5 12 0 14 2 19 5 13 2 -7 2 -19 0 -25z m3464 -458 c10 -6
70 -20 132 -31 61 -12 114 -24 117 -27 3 -4 32 -20 65 -35 33 -16 72 -39 88
-51 l27 -22 -82 -111 c-46 -61 -115 -155 -154 -209 -171 -239 -269 -373 -271
-371 -1 2 2 29 6 62 6 38 5 62 -2 66 -5 4 -6 13 -1 20 17 29 34 245 33 439 -1
185 5 280 18 280 2 0 13 -5 24 -10z m571 -302 c3 -7 -16 -38 -41 -68 -25 -31
-57 -71 -71 -89 -14 -18 -43 -56 -65 -85 -23 -28 -70 -89 -105 -136 -35 -47
-70 -91 -78 -99 -7 -8 -32 -39 -54 -70 -23 -31 -55 -72 -72 -92 -65 -77 -86
-104 -86 -111 0 -4 -10 -12 -21 -19 -17 -9 -20 -8 -13 3 9 14 21 31 44 57 24
28 60 80 60 86 0 8 50 76 66 90 6 6 34 45 63 87 28 42 55 79 61 83 5 3 17 22
26 41 9 19 19 33 21 30 9 -9 33 22 33 41 0 10 13 30 28 43 15 14 38 41 51 60
13 19 29 40 35 45 23 20 76 93 76 104 0 15 37 14 42 -1z m-4148 -24 c3 -9 6
-29 6 -46 0 -25 -3 -29 -22 -26 -25 3 -33 26 -24 64 7 27 31 32 40 8z m4916
-50 c0 -31 -23 -28 -28 4 -2 15 2 22 12 22 11 0 16 -9 16 -26z m48 -26 c-6
-16 -36 -34 -44 -26 -3 4 -4 14 -1 23 7 17 51 21 45 3z m-4974 -24 c16 -6 11
-30 -11 -52 -19 -20 -16 -42 7 -42 11 0 20 -1 20 -2 0 -2 4 -40 10 -86 5 -45
7 -89 3 -98 -9 -23 -79 -15 -110 14 -30 27 -39 23 -23 -10 11 -22 11 -22 -5
-3 -9 12 -14 29 -10 43 3 13 1 22 -6 22 -8 0 -7 6 2 17 10 11 10 14 2 9 -19
-11 -16 9 7 55 12 22 18 44 15 48 -3 5 7 20 21 32 14 13 33 32 43 41 20 20 17
19 35 12z m4708 -309 c-2 -14 -6 -25 -8 -25 -2 0 -4 11 -4 25 0 14 4 25 9 25
4 0 6 -11 3 -25z m-4792 -66 c0 -10 -4 -19 -10 -19 -5 0 -9 11 -8 24 3 28 18
24 18 -5z m3583 6 c-3 -9 -8 -14 -10 -11 -3 3 -2 9 2 15 9 16 15 13 8 -4z
m1594 -122 c-3 -10 -5 -2 -5 17 0 19 2 27 5 18 2 -10 2 -26 0 -35z m38 -23 c3
-6 -1 -13 -10 -16 -19 -8 -30 0 -20 15 8 14 22 14 30 1z m15 -50 c0 -5 -4 -10
-10 -10 -5 0 -10 5 -10 10 0 6 5 10 10 10 6 0 10 -4 10 -10z m267 -12 c-3 -8
-6 -5 -6 6 -1 11 2 17 5 13 3 -3 4 -12 1 -19z m-577 -218 c0 -5 -4 -10 -10
-10 -5 0 -10 5 -10 10 0 6 5 10 10 10 6 0 10 -4 10 -10z m-1417 -35 c-3 -9 -8
-14 -10 -11 -3 3 -2 9 2 15 9 16 15 13 8 -4z m-31 -47 c-7 -7 -12 -8 -12 -2 0
6 3 14 7 17 3 4 9 5 12 2 2 -3 -1 -11 -7 -17z m1714 -265 c-2 -16 -7 -45 -11
-65 -3 -21 -11 -40 -17 -44 -6 -4 -8 -3 -4 4 3 6 2 13 -4 17 -6 4 -7 11 -3 18
4 6 8 25 10 42 4 41 10 55 23 55 7 0 10 -11 6 -27z m44 -232 c0 -11 -4 -9 -15
5 -8 10 -15 25 -15 33 0 11 4 9 15 -5 8 -10 15 -25 15 -33z m-2049 -114 c-10
-9 -11 -8 -5 6 3 10 9 15 12 12 3 -3 0 -11 -7 -18z m-3311 -136 c0 -6 -4 -13
-10 -16 -5 -3 -10 1 -10 9 0 9 5 16 10 16 6 0 10 -4 10 -9z m3177 -33 c-3 -7
-5 -2 -5 12 0 14 2 19 5 13 2 -7 2 -19 0 -25z m-3434 6 c33 -5 44 -10 40 -20
-3 -8 0 -14 6 -14 18 0 12 -36 -9 -55 -17 -16 -20 -16 -20 -2 0 8 6 17 13 20
6 2 8 8 4 13 -4 5 -11 4 -15 -2 -4 -6 -18 -14 -32 -18 -14 -3 -19 -3 -12 0 6
3 10 10 6 15 -9 15 -24 10 -24 -7 0 -11 -5 -14 -16 -10 -44 17 -66 17 -89 2
-14 -9 -25 -23 -25 -32 0 -9 -35 -49 -77 -90 -82 -77 -116 -91 -157 -61 -15
11 -16 17 -5 40 7 15 10 29 8 31 -12 13 -64 -12 -106 -49 -42 -38 -49 -42 -57
-27 -9 15 -11 14 -16 -8 -5 -21 -12 -25 -45 -25 -37 0 -40 2 -40 28 1 21 -4
27 -20 27 -16 0 -17 2 -5 10 8 5 12 10 7 10 -4 0 -30 -21 -57 -47 -49 -46 -67
-54 -125 -54 -27 0 -28 -1 -12 -13 27 -21 21 -26 -30 -26 -44 1 -47 2 -29 15
17 13 17 15 4 15 -9 0 -20 -4 -23 -10 -8 -13 -35 -13 -35 -1 0 5 7 16 15 25
18 17 5 29 -22 20 -14 -4 -13 -1 6 15 27 25 56 28 47 6 -4 -11 -1 -13 12 -5
18 9 67 23 92 25 23 2 53 16 75 35 24 21 85 36 85 21 0 -18 41 -24 58 -8 9 9
42 28 72 44 37 20 56 36 60 53 5 21 7 22 13 8 5 -16 10 -16 33 -6 22 10 28 10
32 0 2 -6 11 -12 19 -12 11 0 14 -7 9 -26 -6 -23 -5 -24 14 -14 11 6 20 15 20
20 0 5 11 12 25 16 14 3 25 10 25 14 0 5 8 11 18 14 9 3 41 26 71 50 41 33 65
46 95 49 23 2 48 4 57 5 9 1 37 -1 62 -4z m-443 -44 c0 -5 -2 -10 -4 -10 -3 0
-8 5 -11 10 -3 6 -1 10 4 10 6 0 11 -4 11 -10z m266 -177 c-2 -3 -9 -2 -15 2
-8 4 -7 13 1 28 l13 22 3 -23 c2 -13 1 -26 -2 -29z m4614 -203 c0 -5 -5 -10
-11 -10 -5 0 -7 5 -4 10 3 6 8 10 11 10 2 0 4 -4 4 -10z m23 -102 c-11 -13
-32 -36 -47 -53 -62 -68 -136 -163 -136 -174 0 -6 -4 -11 -10 -11 -5 0 -10 7
-10 15 0 8 5 15 10 15 6 0 10 6 10 13 0 7 8 20 18 29 9 9 35 41 57 72 22 30
46 55 53 56 6 0 12 6 12 14 0 15 37 46 54 46 5 0 0 -10 -11 -22z m-5511 -10
c-7 -7 -12 -8 -12 -2 0 14 12 26 19 19 2 -3 -1 -11 -7 -17z m5375 -25 c-31
-32 -36 -27 -7 7 11 12 17 28 13 34 -3 6 0 5 8 -2 11 -10 9 -17 -14 -39z m-53
-2 c-10 -10 -21 -16 -24 -14 -3 3 4 11 14 19 28 20 33 17 10 -5z m6 -40 c-10
-20 -30 -29 -30 -14 0 10 33 44 37 39 3 -2 0 -14 -7 -25z m-57 -11 c-10 -11
-22 -20 -27 -20 -5 0 -1 9 9 20 10 11 22 20 26 20 5 0 1 -9 -8 -20z m277 6 c0
-7 -11 -22 -25 -32 -14 -10 -25 -22 -25 -27 0 -9 -40 -67 -56 -82 -7 -5 -21
-28 -33 -50 -12 -25 -20 -33 -21 -22 0 20 30 80 43 85 4 2 7 10 7 18 0 8 5 14
10 14 6 0 14 8 18 19 9 24 63 91 74 91 4 0 8 -6 8 -14z m-260 -34 c0 -14 -39
-46 -46 -39 -4 4 1 9 10 13 9 3 16 12 16 20 0 8 5 14 10 14 6 0 10 -4 10 -8z
m-102 -61 c-7 -11 -16 -17 -20 -14 -10 5 10 33 23 33 5 0 4 -9 -3 -19z m-4951
-5 c4 -8 19 -16 33 -18 18 -2 26 -10 28 -29 2 -15 12 -35 22 -44 14 -13 17
-25 13 -53 -3 -21 -10 -41 -14 -46 -5 -6 -9 -34 -9 -63 0 -35 -4 -53 -12 -54
-7 -1 -2 -4 12 -8 52 -14 71 -145 35 -248 -13 -36 -16 -38 -50 -35 -20 2 -41
-1 -48 -6 -7 -5 -27 -13 -44 -17 l-32 -6 10 30 c6 17 8 38 5 46 -3 8 -2 25 3
38 12 31 -2 62 -37 83 -27 16 -29 19 -17 38 7 12 16 53 19 91 3 39 3 64 0 57
-8 -17 -25 -5 -18 13 5 13 -28 39 -38 29 -3 -2 -10 1 -16 9 -8 9 -7 24 3 52 8
22 14 52 15 66 0 35 21 60 61 74 47 17 67 17 76 1z m4997 -11 c-4 -8 -10 -15
-15 -15 -4 0 -16 -12 -24 -27 -16 -28 -16 -28 -11 -3 3 14 6 29 6 33 0 5 4 6
9 3 5 -3 11 1 15 9 3 8 10 15 15 15 6 0 8 -7 5 -15z m30 -21 c3 -8 2 -12 -4
-9 -6 3 -10 -1 -10 -9 0 -8 -6 -21 -13 -28 -8 -7 -16 -20 -20 -28 -4 -12 -6
-12 -6 2 -1 15 36 88 44 88 2 0 6 -7 9 -16z m-137 -28 c-8 -8 -17 -12 -21 -9
-3 3 2 12 12 19 22 16 29 9 9 -10z m173 -12 c0 -14 -4 -23 -9 -20 -5 3 -11 -8
-15 -25 -6 -34 -26 -31 -25 4 0 21 1 21 9 2 8 -19 9 -19 9 3 1 19 20 62 28 62
2 0 3 -12 3 -26z m-144 -22 c-15 -15 -15 -15 -4 10 7 15 15 23 17 17 2 -6 -4
-18 -13 -27z m306 -14 c-9 -9 -12 -7 -12 12 0 19 3 21 12 12 9 -9 9 -15 0 -24z
m67 0 c0 -28 -2 -30 -9 -13 -8 19 -9 19 -9 -2 -1 -31 -12 -54 -22 -47 -5 3 -9
-1 -9 -9 0 -8 -7 -17 -15 -21 -11 -4 -15 1 -15 17 0 17 2 19 9 8 8 -12 11 -9
16 12 4 15 11 27 15 27 4 0 10 14 14 30 8 40 26 38 25 -2z m-339 -33 c-12 -38
-42 -51 -33 -14 4 15 8 17 14 8 5 -8 10 2 15 27 4 21 9 33 11 27 3 -7 -1 -29
-7 -48z m161 -7 c8 12 17 22 21 22 15 0 8 -27 -14 -50 l-22 -23 -9 26 c-5 15
-13 25 -18 21 -11 -6 -11 2 -2 36 7 23 8 22 18 -15 12 -39 12 -40 26 -17z m82
-17 c-5 -3 -12 -14 -16 -23 -3 -10 -11 -18 -17 -18 -15 0 -12 20 3 21 9 0 9 2
0 6 -10 3 -9 8 2 20 8 8 15 24 16 36 0 19 2 18 11 -7 6 -17 7 -31 1 -35z
m-332 -8 c-12 -20 -14 -14 -5 12 4 9 9 14 11 11 3 -2 0 -13 -6 -23z m149 21
c0 -14 -15 -34 -26 -34 -16 0 -16 2 -9 23 5 11 35 21 35 11z m46 -33 c-12 -19
-24 -12 -19 10 4 13 9 17 15 11 6 -6 7 -15 4 -21z m-234 -53 c-6 -6 -7 0 -4
19 5 21 7 23 10 9 2 -10 0 -22 -6 -28z m145 0 c-3 -7 -5 -2 -5 12 0 14 2 19 5
13 2 -7 2 -19 0 -25z m113 7 c0 -8 -4 -15 -10 -15 -5 0 -7 7 -4 15 4 8 8 15
10 15 2 0 4 -7 4 -15z m-200 -16 c0 -5 -4 -9 -10 -9 -5 0 -10 7 -10 16 0 8 5
12 10 9 6 -3 10 -10 10 -16z m60 -8 c-6 -12 -15 -21 -21 -21 -10 0 -4 15 16
36 15 17 18 9 5 -15z m204 7 c-7 -22 -35 -50 -43 -43 -3 4 40 63 47 64 2 1 0
-9 -4 -21z m66 2 c0 -3 -7 -15 -15 -26 -14 -18 -14 -18 -15 7 0 16 5 26 15 26
8 0 15 -3 15 -7z m-217 -15 c4 -8 2 -17 -3 -20 -6 -4 -10 3 -10 14 0 25 6 27
13 6z m326 -20 c1 13 4 16 11 9 14 -14 2 -44 -16 -44 -10 0 -14 12 -13 38 1
37 1 37 9 7 5 -19 8 -23 9 -10z m-60 -9 c-8 -6 -19 -22 -25 -35 -7 -17 -13
-21 -18 -13 -4 7 -2 12 3 12 6 0 11 6 11 13 0 22 33 63 38 47 3 -7 -2 -18 -9
-24z m-199 15 c0 -6 -4 -13 -10 -16 -5 -3 -10 1 -10 9 0 9 5 16 10 16 6 0 10
-4 10 -9z m120 -31 c0 -5 -2 -10 -4 -10 -3 0 -8 5 -11 10 -3 6 -1 10 4 10 6 0
11 -4 11 -10z m-276 -25 c-4 -8 -7 -15 -9 -15 -2 0 -5 7 -9 15 -3 9 0 15 9 15
9 0 12 -6 9 -15z m72 3 c4 -7 3 -8 -4 -4 -8 5 -12 -1 -12 -16 0 -17 -2 -20 -9
-9 -7 10 -12 2 -19 -30 -5 -24 -10 -34 -11 -21 -1 29 25 92 38 92 5 0 13 -5
17 -12z m324 -19 c0 -10 -7 -19 -15 -19 -8 0 -15 7 -15 15 0 8 5 15 11 15 5 0
7 5 3 12 -4 7 -3 8 4 4 7 -4 12 -16 12 -27z m-276 -6 c-5 -17 -9 -19 -19 -10
-14 13 -9 31 6 22 5 -4 9 -1 9 6 0 7 2 10 5 8 2 -3 2 -15 -1 -26z m119 -33
c-3 -11 -9 -20 -14 -20 -5 0 -9 -8 -9 -17 0 -16 -2 -16 -11 -3 -9 12 -10 11
-6 -8 3 -12 1 -20 -4 -16 -15 9 -10 33 11 51 11 10 20 23 20 31 0 7 4 11 9 8
5 -3 7 -15 4 -26z m-160 -9 c3 -13 1 -18 -9 -14 -7 2 -10 11 -7 19 7 19 10 18
16 -5z m220 2 c-7 -3 -13 -15 -13 -28 0 -14 -7 -25 -19 -28 -15 -3 -18 1 -17
18 1 18 4 21 14 13 9 -8 12 -5 12 10 0 19 19 35 30 24 3 -2 -1 -7 -7 -9z
m-422 -16 c-10 -9 -11 -8 -5 6 3 10 9 15 12 12 3 -3 0 -11 -7 -18z m284 0 c6
-5 3 -7 -7 -3 -10 3 -18 0 -18 -6 0 -6 -2 -9 -5 -6 -3 3 -3 13 1 22 4 9 9 13
13 9 3 -4 11 -12 16 -16z m-158 -19 c-3 -8 -6 -5 -6 6 -1 11 2 17 5 13 3 -3 4
-12 1 -19z m336 -37 c-3 -10 0 -22 6 -25 6 -4 10 -19 10 -34 l-1 -27 -7 29
c-9 43 -29 44 -37 1 -3 -20 -9 -34 -11 -31 -8 8 8 87 16 81 5 -2 6 8 3 23 -5
24 -3 25 10 14 9 -7 14 -21 11 -31z m-356 7 c-3 -8 -6 -5 -6 6 -1 11 2 17 5
13 3 -3 4 -12 1 -19z m65 4 c-7 -2 -12 -11 -12 -19 0 -9 -3 -14 -6 -10 -10 10
7 48 19 40 8 -5 8 -8 -1 -11z m69 -23 c-6 -16 -10 -18 -10 -7 -1 22 12 55 16
42 2 -6 -1 -22 -6 -35z m280 -16 c-8 -14 -11 -15 -12 -3 -1 8 -5 2 -9 -15 l-8
-30 -1 33 c-1 22 4 32 14 32 8 0 16 8 16 18 1 16 2 16 6 0 2 -10 0 -25 -6 -35z
m-304 -10 c-3 -10 -5 -4 -5 12 0 17 2 24 5 18 2 -7 2 -21 0 -30z m97 21 c3 -8
2 -12 -4 -9 -6 3 -10 -2 -10 -12 0 -14 -2 -15 -9 -4 -7 11 -10 10 -14 -5 -4
-13 -5 -11 -4 6 2 14 8 24 15 23 6 -2 12 2 12 7 0 15 7 12 14 -6z m252 -40
c-4 -19 -11 -32 -16 -29 -4 3 -11 -1 -13 -7 -3 -7 -6 4 -6 25 -1 20 3 37 9 37
5 0 7 -7 4 -15 -4 -8 -1 -15 5 -15 6 0 11 15 12 33 0 17 3 26 6 19 3 -7 2 -29
-1 -48z m21 4 c-2 -13 -4 -5 -4 17 -1 22 1 32 4 23 2 -10 2 -28 0 -40z m-207
27 c0 -1 -6 -8 -14 -15 -12 -9 -15 -8 -13 8 0 12 6 18 14 15 7 -3 13 -6 13 -8z
m-186 -39 c-3 -21 -8 -35 -11 -32 -2 2 -1 20 3 40 3 21 8 35 11 32 2 -2 1 -20
-3 -40z m56 -43 c-10 -45 -14 -54 -21 -38 -4 11 -8 27 -8 35 -1 12 1 13 8 1 6
-10 11 -1 16 28 4 23 9 40 12 37 3 -2 -1 -31 -7 -63z m156 1 c-4 -14 -11 -22
-16 -19 -6 3 -10 -4 -11 -17 0 -13 -3 -17 -6 -10 -3 7 -2 30 2 50 6 31 9 34
15 17 7 -17 9 -16 10 10 2 19 4 23 7 12 3 -10 2 -30 -1 -43z m51 34 c-3 -8 -6
-5 -6 6 -1 11 2 17 5 13 3 -3 4 -12 1 -19z m-120 -20 c-3 -7 -5 -2 -5 12 0 14
2 19 5 13 2 -7 2 -19 0 -25z m-176 -29 c-5 -13 -10 -19 -10 -12 -1 15 10 45
15 40 3 -2 0 -15 -5 -28z m303 -8 c-5 -23 -9 -29 -15 -19 -6 9 -9 6 -9 -11 0
-13 -3 -22 -6 -18 -9 9 7 68 17 61 5 -3 9 3 9 12 0 10 2 15 5 12 3 -3 2 -19
-1 -37z m36 35 c0 -3 -4 -8 -10 -11 -5 -3 -10 -1 -10 4 0 6 5 11 10 11 6 0 10
-2 10 -4z m34 -38 c6 -4 7 -10 3 -14 -11 -12 -36 16 -30 34 6 13 7 13 11 1 3
-7 10 -17 16 -21z m-111 -53 c4 -34 3 -42 -3 -25 -8 25 -13 87 -6 79 2 -2 6
-26 9 -54z m84 13 c-3 -8 -6 -5 -6 6 -1 11 2 17 5 13 3 -3 4 -12 1 -19z m-210
-10 c-3 -8 -6 -5 -6 6 -1 11 2 17 5 13 3 -3 4 -12 1 -19z m202 -33 l0 -20 -9
20 c-7 16 -9 17 -9 3 -1 -9 -4 -24 -8 -34 -4 -11 -3 -15 5 -10 6 3 14 1 18 -5
4 -8 3 -9 -5 -5 -7 4 -15 -2 -20 -16 -7 -15 -10 -17 -10 -7 -1 9 -3 32 -6 50
-4 26 -3 30 4 14 9 -18 10 -18 10 6 1 14 -5 31 -11 38 -9 10 -9 12 -1 7 6 -3
15 -1 19 6 9 14 23 -15 23 -47z m-5224 35 c4 -6 -6 -10 -22 -10 -22 0 -25 2
-13 10 19 12 27 12 35 0z m5095 -6 c0 -3 -10 -15 -21 -27 -18 -18 -21 -19 -15
-4 3 10 6 25 6 33 0 8 6 11 15 8 8 -4 15 -8 15 -10z m29 -35 c0 8 3 12 6 9 3
-3 2 -20 -2 -39 -7 -33 -7 -33 -14 -9 -4 14 -7 39 -7 55 l0 30 8 -30 c4 -16 8
-24 9 -16z m201 37 c0 -3 -4 -8 -10 -11 -5 -3 -10 -1 -10 4 0 6 5 11 10 11 6
0 10 -2 10 -4z m-4890 -36 c0 -5 -4 -10 -10 -10 -5 0 -10 5 -10 10 0 6 5 10
10 10 6 0 10 -4 10 -10z m4930 -10 c0 -5 -4 -11 -10 -15 -5 -3 -6 -13 -3 -23
3 -9 3 -14 -2 -10 -4 4 -14 0 -21 -10 -15 -20 -19 -17 -28 23 l-6 30 15 -25
c14 -24 14 -24 15 -3 0 34 10 52 26 46 8 -3 14 -9 14 -13z m55 -60 c4 -16 1
-13 -9 9 -9 18 -16 43 -15 55 1 21 5 10 24 -64z m-538 38 c-3 -8 -6 -5 -6 6
-1 11 2 17 5 13 3 -3 4 -12 1 -19z m20 0 c-3 -8 -6 -5 -6 6 -1 11 2 17 5 13 3
-3 4 -12 1 -19z m62 -28 c0 -10 -3 -8 -9 5 -12 27 -12 43 0 25 5 -8 9 -22 9
-30z m138 -2 c-3 -7 -5 -2 -5 12 0 14 2 19 5 13 2 -7 2 -19 0 -25z m359 7 c-8
-11 -16 -30 -18 -40 -3 -11 -5 -2 -5 20 1 32 5 41 19 41 15 0 16 -3 4 -21z
m-449 -17 c-3 -7 -5 -2 -5 12 0 14 2 19 5 13 2 -7 2 -19 0 -25z m20 10 c-3 -8
-6 -5 -6 6 -1 11 2 17 5 13 3 -3 4 -12 1 -19z m140 0 c-3 -8 -6 -5 -6 6 -1 11
2 17 5 13 3 -3 4 -12 1 -19z m-79 -48 c0 -23 -1 -22 -8 5 l-8 30 -1 -35 c-1
-19 -6 -42 -11 -50 -13 -20 -13 -3 1 62 9 42 13 49 20 33 4 -11 7 -31 7 -45z
m286 20 c4 -26 3 -31 -5 -20 -8 11 -9 6 -7 -22 3 -23 0 -34 -5 -29 -5 5 -6 32
-2 61 8 58 10 59 19 10z m25 -3 c1 -5 -3 -5 -9 -2 -5 3 -10 16 -9 28 0 21 1
21 9 2 5 -11 9 -24 9 -28z m-192 -14 c-3 -10 -5 -2 -5 17 0 19 2 27 5 18 2
-10 2 -26 0 -35z m-48 -2 c0 -12 -2 -11 -9 4 -7 17 -9 17 -9 3 -1 -10 -5 -18
-10 -18 -4 0 -6 11 -3 25 3 20 7 23 18 14 8 -6 14 -19 13 -28z m67 -17 c-4
-19 -11 -32 -16 -29 -5 3 -11 -3 -13 -12 -3 -12 -5 -9 -6 8 -1 16 5 29 14 33
8 3 15 18 16 33 0 15 3 22 6 15 3 -7 2 -29 -1 -48z m-236 21 l1 20 8 -20 c5
-12 4 -23 -3 -27 -12 -8 -26 10 -25 32 0 10 3 8 9 -5 l9 -20 1 20z m306 -42
c-8 -8 -12 -3 -21 27 l-7 25 17 -23 c9 -13 14 -26 11 -29z m-246 27 c0 -5 -5
-10 -11 -10 -5 0 -7 5 -4 10 3 6 8 10 11 10 2 0 4 -4 4 -10z m367 -27 c-3 -10
-5 -4 -5 12 0 17 2 24 5 18 2 -7 2 -21 0 -30z m-289 -23 c-3 -42 -13 -53 -21
-22 -3 10 -5 5 -6 -12 0 -16 -4 -27 -7 -23 -3 3 -3 25 1 49 6 35 9 39 16 23 7
-19 8 -19 8 3 1 12 3 22 6 22 3 0 4 -18 3 -40z m19 8 c-3 -7 -5 -2 -5 12 0 14
2 19 5 13 2 -7 2 -19 0 -25z m36 -28 c4 -36 3 -46 -3 -30 -8 24 -8 24 -9 -7
-1 -22 -6 -33 -15 -33 -8 0 -16 -10 -18 -22 -3 -21 -4 -21 -9 5 -5 22 -3 27
12 27 15 0 19 11 25 60 4 34 8 59 9 58 1 -2 5 -28 8 -58z m84 23 c-3 -10 -5
-4 -5 12 0 17 2 24 5 18 2 -7 2 -21 0 -30z m-390 5 c-3 -8 -6 -5 -6 6 -1 11 2
17 5 13 3 -3 4 -12 1 -19z m20 0 c-3 -8 -6 -5 -6 6 -1 11 2 17 5 13 3 -3 4
-12 1 -19z m140 -10 c-3 -7 -5 -2 -5 12 0 14 2 19 5 13 2 -7 2 -19 0 -25z
m-75 3 c7 11 9 11 6 1 -5 -17 -23 -17 -24 0 -1 9 1 8 4 -1 3 -12 5 -12 14 0z
m378 5 c0 -3 -4 -8 -10 -11 -5 -3 -10 -1 -10 4 0 6 5 11 10 11 6 0 10 -2 10
-4z m47 -18 c-3 -8 -6 -5 -6 6 -1 11 2 17 5 13 3 -3 4 -12 1 -19z m-309 -66
c-4 -2 -10 -19 -14 -38 -6 -35 -7 -35 -19 -12 -12 24 -8 49 5 28 5 -8 10 -2
14 17 4 17 6 34 5 39 -4 26 4 25 10 -1 4 -16 3 -31 -1 -33z m292 48 c8 -5 11
-10 5 -10 -5 0 -17 5 -25 10 -8 5 -10 10 -5 10 6 0 17 -5 25 -10z m-63 -22
c-3 -8 -6 -5 -6 6 -1 11 2 17 5 13 3 -3 4 -12 1 -19z m-291 -31 c-2 -7 -5 -3
-5 8 -1 17 -3 17 -11 5 -8 -13 -10 -13 -10 1 0 9 3 19 7 23 9 9 26 -22 19 -37z
m224 33 c0 -5 -4 -10 -10 -10 -5 0 -10 5 -10 10 0 6 5 10 10 10 6 0 10 -4 10
-10z m117 -32 c-3 -8 -6 -5 -6 6 -1 11 2 17 5 13 3 -3 4 -12 1 -19z m-365 -17
c7 10 9 11 6 1 -6 -21 -23 -19 -24 3 -1 18 -1 18 3 1 4 -16 7 -17 15 -5z m285
-3 c-3 -8 -6 -5 -6 6 -1 11 2 17 5 13 3 -3 4 -12 1 -19z m20 0 c-3 -8 -6 -5
-6 6 -1 11 2 17 5 13 3 -3 4 -12 1 -19z m-67 -8 c0 -5 -6 -9 -12 -7 -8 1 -15
-14 -19 -38 l-6 -40 -2 42 c-1 38 6 50 32 52 4 1 7 -3 7 -9z m130 4 c0 -8 -19
-13 -24 -6 -3 5 1 9 9 9 8 0 15 -2 15 -3z m-113 -51 c-3 -10 -5 -2 -5 17 0 19
2 27 5 18 2 -10 2 -26 0 -35z m-210 -5 c-3 -7 -5 -2 -5 12 0 14 2 19 5 13 2
-7 2 -19 0 -25z m293 22 c0 -5 -4 -10 -10 -10 -5 0 -10 5 -10 10 0 6 5 10 10
10 6 0 10 -4 10 -10z m-197 -15 c-3 -9 -8 -14 -10 -11 -3 3 -2 9 2 15 9 16 15
13 8 -4z m44 -22 c-3 -10 -5 -4 -5 12 0 17 2 24 5 18 2 -7 2 -21 0 -30z m-56
-3 c5 0 9 -4 9 -10 0 -5 -7 -7 -15 -4 -8 4 -14 16 -14 28 1 16 2 17 6 4 2 -10
9 -18 14 -18z m140 -22 c-7 -26 -9 -28 -10 -10 -1 15 -5 21 -13 16 -7 -4 -8
-3 -4 5 4 6 12 9 17 6 5 -4 9 4 10 17 0 13 3 18 5 11 3 -6 1 -26 -5 -45z
m-324 20 c-3 -8 -6 -5 -6 6 -1 11 2 17 5 13 3 -3 4 -12 1 -19z m393 8 c0 -3
-4 -8 -10 -11 -5 -3 -10 -1 -10 4 0 6 5 11 10 11 6 0 10 -2 10 -4z m-171 -57
c1 13 4 22 7 18 4 -3 3 -18 0 -34 -6 -21 -9 -24 -17 -12 -5 7 -8 23 -8 34 1
16 2 16 9 -5 l8 -25 1 24z m28 -1 c-3 -8 -6 -5 -6 6 -1 11 2 17 5 13 3 -3 4
-12 1 -19z m-275 -17 c2 -17 1 -28 -4 -25 -8 5 -12 54 -4 54 2 0 6 -13 8 -29z
m168 15 c0 -3 -4 -8 -10 -11 -5 -3 -10 -1 -10 4 0 6 5 11 10 11 6 0 10 -2 10
-4z m-393 -28 c-3 -8 -6 -5 -6 6 -1 11 2 17 5 13 3 -3 4 -12 1 -19z m313 2 c0
-11 -4 -20 -9 -20 -5 0 -7 9 -4 20 3 11 7 20 9 20 2 0 4 -9 4 -20z m47 -32
c-3 -7 -5 -2 -5 12 0 14 2 19 5 13 2 -7 2 -19 0 -25z m90 0 c-3 -7 -5 -2 -5
12 0 14 2 19 5 13 2 -7 2 -19 0 -25z m-4840 0 c-3 -8 -6 -5 -6 6 -1 11 2 17 5
13 3 -3 4 -12 1 -19z m4880 -50 c-3 -7 -5 -2 -5 12 0 14 2 19 5 13 2 -7 2 -19
0 -25z m-170 -20 c-3 -8 -6 -5 -6 6 -1 11 2 17 5 13 3 -3 4 -12 1 -19z m-80
-40 c-3 -8 -6 -5 -6 6 -1 11 2 17 5 13 3 -3 4 -12 1 -19z m-20 -10 c-3 -8 -6
-5 -6 6 -1 11 2 17 5 13 3 -3 4 -12 1 -19z m90 -10 c-3 -8 -6 -5 -6 6 -1 11 2
17 5 13 3 -3 4 -12 1 -19z m50 -40 c-3 -7 -5 -2 -5 12 0 14 2 19 5 13 2 -7 2
-19 0 -25z m20 -5 c-3 -10 -5 -4 -5 12 0 17 2 24 5 18 2 -7 2 -21 0 -30z m130
5 c-3 -8 -6 -5 -6 6 -1 11 2 17 5 13 3 -3 4 -12 1 -19z m-5086 -375 c-9 -16
-10 -15 -11 8 0 14 3 29 8 33 12 12 14 -22 3 -41z m-21 -42 c0 -11 -4 -23 -10
-26 -6 -4 -10 5 -10 19 0 14 5 26 10 26 6 0 10 -9 10 -19z m5160 -81 c0 -5 -4
-10 -9 -10 -6 0 -13 5 -16 10 -3 6 1 10 9 10 9 0 16 -4 16 -10z"/>
<path d="M6865 11770 c-3 -5 -1 -10 4 -10 6 0 11 5 11 10 0 6 -2 10 -4 10 -3
0 -8 -4 -11 -10z"/>
<path d="M6706 11584 c-3 -9 -2 -23 4 -32 9 -16 9 -15 10 1 0 10 5 15 10 12 6
-3 10 -15 10 -26 0 -10 5 -19 10 -19 13 0 13 6 -2 47 -13 35 -32 43 -42 17z"/>
<path d="M3516 6761 c-4 -5 3 -7 14 -4 23 6 26 13 6 13 -8 0 -17 -4 -20 -9z"/>
<path d="M2465 6620 c-23 -9 -53 -40 -39 -40 12 0 74 38 74 45 0 7 -11 5 -35
-5z"/>
<path d="M2380 6560 c-9 -6 -10 -10 -3 -10 6 0 15 5 18 10 8 12 4 12 -15 0z"/>
<path d="M2340 6535 c-11 -13 -10 -14 4 -9 9 3 16 10 16 15 0 13 -6 11 -20 -6z"/>
<path d="M2260 6525 c-10 -12 -10 -15 3 -15 8 0 20 7 27 15 10 12 10 15 -3 15
-8 0 -20 -7 -27 -15z"/>
<path d="M2177 6446 c-12 -9 -14 -16 -8 -21 6 -3 18 0 26 9 27 27 14 36 -18
12z"/>
<path d="M1936 5965 c-3 -8 -1 -15 4 -15 6 0 10 7 10 15 0 8 -2 15 -4 15 -2 0
-6 -7 -10 -15z"/>
<path d="M1912 5890 c0 -14 2 -19 5 -12 2 6 2 18 0 25 -3 6 -5 1 -5 -13z"/>
<path d="M2062 5675 c-49 -24 -98 -55 -108 -68 -11 -13 -23 -25 -29 -26 -22
-6 -35 -25 -30 -43 5 -14 0 -19 -24 -24 -45 -9 -38 -21 13 -26 35 -2 49 1 65
18 l20 21 -24 -5 c-15 -2 -25 0 -25 7 0 7 5 9 10 6 6 -3 10 -2 10 4 0 5 -6 11
-12 14 -7 2 7 3 32 3 39 -1 45 1 42 18 -3 17 -1 18 11 8 12 -10 24 -10 58 3
24 8 62 15 84 16 32 0 36 2 20 9 -14 6 -4 9 38 9 31 1 57 5 57 10 0 5 25 9 55
10 30 0 55 -3 55 -8 0 -13 120 -54 168 -58 24 -2 42 1 42 7 0 16 32 10 65 -11
17 -11 38 -22 48 -25 9 -4 17 -9 17 -13 0 -3 12 -7 27 -8 15 0 32 -8 37 -16 6
-8 21 -17 34 -21 20 -7 22 -5 17 17 -8 30 13 48 27 23 9 -16 28 -14 28 3 0 18
-62 72 -77 67 -8 -4 -36 5 -62 18 -25 14 -64 27 -86 31 -100 15 -124 16 -143
6 -16 -9 -24 -7 -37 6 -14 13 -21 14 -36 4 -15 -9 -29 -9 -62 0 -40 11 -41 12
-18 21 18 6 22 11 13 20 -12 12 -140 13 -174 2 -10 -3 -26 -1 -36 5 -15 8 -38
1 -110 -34z m533 -65 c7 -12 -40 -24 -56 -15 -6 4 -15 2 -19 -5 -6 -10 -12 -9
-26 5 -17 17 -16 17 24 13 23 -2 42 0 42 4 0 11 28 10 35 -2z m190 -60 c3 -5
1 -10 -4 -10 -6 0 -11 5 -11 10 0 6 2 10 4 10 3 0 8 -4 11 -10z"/>
<path d="M2413 5693 c9 -2 25 -2 35 0 9 3 1 5 -18 5 -19 0 -27 -2 -17 -5z"/>
<path d="M4078 5543 c-19 -3 -25 -9 -21 -19 5 -13 -1 -15 -28 -14 -19 1 -38 1
-44 -1 -5 -1 -16 -3 -24 -3 -25 -2 -22 -21 7 -38 27 -16 29 -16 40 3 9 13 19
18 32 14 21 -7 90 33 90 53 0 12 -3 12 -52 5z"/>
<path d="M2890 5500 c0 -5 7 -10 16 -10 8 0 12 5 9 10 -3 6 -10 10 -16 10 -5
0 -9 -4 -9 -10z"/>
<path d="M2440 5300 c-51 -8 -105 -28 -78 -29 9 -1 44 6 79 15 95 24 251 2
334 -48 63 -38 115 -88 93 -88 -8 0 -21 6 -27 14 -7 8 -27 18 -44 22 -40 8
-59 23 -50 38 4 6 -1 5 -11 -3 -15 -12 -19 -13 -26 -1 -7 11 -11 11 -24 1 -16
-14 -37 -5 -58 24 -5 6 -8 4 -8 -5 0 -12 -14 -15 -65 -14 -36 0 -68 4 -72 7
-3 4 -12 2 -20 -4 -7 -6 -13 -8 -13 -3 0 5 -5 2 -10 -6 -6 -10 -22 -14 -47
-12 -30 2 -35 0 -23 -8 12 -9 8 -10 -17 -5 -19 4 -33 2 -33 -3 0 -12 -134 -56
-152 -49 -7 2 1 8 17 12 27 7 104 40 190 82 29 14 29 14 -24 8 -30 -3 -67 -13
-82 -20 -45 -24 -180 -65 -211 -65 -41 0 -31 -20 18 -37 l39 -13 -55 6 c-30 3
-58 10 -61 16 -4 6 -12 7 -19 3 -22 -14 68 -45 131 -45 39 0 61 -5 66 -14 7
-11 26 -12 111 -3 87 9 105 8 113 -4 8 -10 9 -8 4 9 -5 16 -2 22 9 22 9 0 16
4 16 9 0 22 31 19 42 -4 16 -35 94 -57 190 -53 72 3 73 3 90 38 10 19 20 40
23 45 3 6 7 5 11 -2 3 -7 11 -13 17 -13 15 0 41 -56 32 -70 -4 -6 7 -10 28
-10 19 0 47 -2 63 -5 57 -11 62 8 17 74 -109 162 -279 227 -503 191z"/>
<path d="M4060 5239 c-75 -21 -190 -88 -190 -112 0 -6 -14 -25 -31 -43 -17
-18 -28 -37 -25 -43 11 -16 127 -15 120 2 -2 7 5 23 17 35 16 18 24 21 35 11
8 -6 14 -22 14 -35 0 -19 8 -25 43 -35 45 -12 162 -15 196 -4 13 4 25 21 32
46 7 21 16 39 20 39 24 0 57 -21 62 -39 4 -15 13 -21 35 -21 17 0 32 -4 34
-10 2 -5 21 -9 43 -10 115 0 168 2 155 7 -8 3 -18 10 -21 15 -5 8 -39 21 -234
91 -33 12 -63 25 -66 30 -3 4 -18 5 -32 1 -17 -4 -27 -2 -27 5 0 6 -14 9 -32
8 -18 -2 -39 1 -45 6 -7 5 -13 6 -13 1 0 -5 -32 -10 -71 -12 -39 -1 -86 -9
-106 -17 -41 -17 -67 -20 -39 -4 10 6 27 20 37 30 11 11 25 17 31 13 6 -4 8
-3 5 3 -10 17 49 34 133 40 62 4 91 0 165 -22 80 -23 120 -44 213 -111 12 -9
25 -14 28 -11 19 19 -155 118 -251 143 -57 16 -183 17 -235 3z m-190 -189 c0
-5 -4 -10 -10 -10 -5 0 -10 5 -10 10 0 6 5 10 10 10 6 0 10 -4 10 -10z m40 0
c0 -5 -4 -10 -10 -10 -5 0 -10 5 -10 10 0 6 5 10 10 10 6 0 10 -4 10 -10z"/>
<path d="M2306 4941 c-14 -21 141 -59 248 -60 43 -1 83 -4 89 -8 5 -3 7 -1 3
5 -3 6 3 12 16 15 17 2 19 5 8 9 -13 5 -163 23 -290 34 -25 2 -50 6 -57 9 -7
2 -15 0 -17 -4z"/>
<path d="M4038 4850 c34 -14 142 -21 177 -11 24 7 14 9 -51 10 -45 1 -97 3
-115 6 -30 5 -31 4 -11 -5z"/>
<path d="M4263 4843 c9 -2 23 -2 30 0 6 3 -1 5 -18 5 -16 0 -22 -2 -12 -5z"/>
<path d="M2915 4140 c-10 -16 26 -79 57 -101 18 -13 36 -27 39 -31 3 -5 32
-13 65 -19 70 -13 196 -58 206 -73 5 -7 8 -3 9 9 0 19 1 18 11 -2 6 -13 15
-23 20 -23 4 0 8 -6 8 -14 0 -20 20 -25 83 -20 62 4 147 42 126 55 -7 4 -17 5
-21 3 -11 -7 -10 -1 3 33 5 15 7 25 4 21 -4 -4 -29 2 -55 12 -26 10 -56 16
-67 14 -11 -3 -25 2 -32 10 -8 9 -19 16 -26 16 -7 0 -18 7 -25 15 -7 8 -20 15
-29 15 -9 0 -34 14 -55 30 -23 18 -44 26 -49 21 -15 -15 -188 0 -229 19 -21
10 -40 15 -43 10z m420 -159 c3 -5 1 -12 -5 -16 -5 -3 -10 1 -10 9 0 18 6 21
15 7z m38 -68 c-3 -7 -10 -13 -17 -13 -13 0 -38 35 -30 43 10 9 52 -18 47 -30z"/>
<path d="M3650 4060 c-30 -22 -61 -46 -69 -53 -8 -6 -21 -14 -28 -17 -9 -4 -6
-14 13 -35 24 -29 25 -29 18 -5 -3 14 -3 22 1 18 7 -6 128 33 174 57 24 12 71
59 71 70 0 3 -28 5 -63 5 -57 0 -67 -3 -117 -40z"/>
<path d="M1843 4077 c5 -15 37 -22 37 -9 0 5 -9 12 -21 15 -13 3 -19 1 -16 -6z"/>
<path d="M2490 4034 c-35 -30 -68 -54 -72 -54 -4 0 -35 -21 -68 -46 -41 -31
-60 -52 -60 -67 0 -28 15 -51 28 -43 5 3 12 -1 16 -9 10 -26 32 -16 90 40 31
31 56 58 56 60 0 3 15 26 34 52 85 121 74 151 -24 67z"/>
<path d="M4130 4016 c0 -7 7 -19 15 -26 12 -10 15 -9 15 8 0 11 -7 22 -15 26
-9 3 -15 0 -15 -8z"/>
<path d="M4177 3943 c-14 -13 -6 -45 17 -76 14 -18 31 -54 38 -80 8 -33 16
-46 26 -42 8 3 25 8 38 11 19 5 24 13 24 40 0 35 -3 39 -84 112 -52 46 -50 45
-59 35z"/>
<path d="M2390 3778 c0 -12 7 -18 23 -17 15 0 17 2 7 6 -8 3 -18 11 -22 17 -5
7 -8 4 -8 -6z"/>
<path d="M2500 3763 c0 -12 -7 -14 -31 -9 -27 5 -30 4 -19 -9 7 -8 23 -15 35
-15 12 0 67 -15 121 -33 100 -32 229 -107 239 -137 3 -8 22 -26 42 -40 21 -13
54 -37 73 -52 19 -16 41 -28 49 -28 13 0 151 -47 213 -73 23 -10 25 -12 10
-23 -15 -11 -14 -14 11 -23 45 -17 212 -14 231 4 8 8 19 15 24 15 6 0 20 16
32 35 22 35 31 41 44 28 15 -15 42 -10 98 18 32 16 58 36 58 44 0 8 6 15 14
15 7 0 16 8 18 18 4 15 0 17 -24 14 -18 -3 -27 -9 -24 -17 3 -9 -10 -15 -41
-20 -58 -8 -67 0 -14 15 23 6 41 15 41 19 0 5 14 11 32 15 17 3 29 8 26 11 -2
3 -20 0 -39 -5 -43 -13 -86 -13 -74 -1 17 16 117 41 162 41 41 0 43 -1 33 -20
-6 -11 -8 -20 -6 -20 3 0 38 15 78 34 40 19 94 37 119 41 26 4 59 16 75 27
l29 20 -66 -6 c-44 -3 -79 0 -107 9 -37 13 -135 26 -202 27 -14 0 -29 3 -35 8
-5 5 -28 11 -50 15 -22 3 -50 8 -63 11 -20 4 -23 1 -18 -14 4 -11 1 -24 -6
-29 -17 -14 -80 -4 -71 10 4 6 0 8 -9 4 -9 -3 -20 -1 -26 5 -8 8 -24 7 -55 -1
-42 -12 -46 -11 -90 19 -53 35 -147 56 -179 39 -25 -13 -505 -6 -533 8 -11 6
-44 13 -72 16 -44 5 -53 3 -53 -10z m1146 -103 c0 -14 -7 -20 -21 -20 -14 0
-21 6 -21 20 0 14 7 20 21 20 14 0 21 -6 21 -20z m-201 -10 c3 -5 2 -10 -4
-10 -5 0 -18 -3 -28 -7 -16 -6 -16 -5 -4 10 15 19 27 22 36 7z m275 6 c0 -2
-11 -6 -25 -8 -13 -3 -22 -1 -19 3 5 9 44 13 44 5z m-656 -75 c3 -4 47 -13 98
-20 51 -6 116 -17 144 -23 30 -6 87 -8 138 -4 97 7 142 1 127 -18 -6 -7 -26
-11 -46 -10 -29 3 -35 0 -35 -17 0 -13 4 -18 12 -13 7 5 30 9 51 10 28 1 37
-1 33 -11 -3 -8 0 -16 7 -19 7 -2 3 -5 -9 -5 -11 -1 -25 -6 -31 -12 -5 -5 -22
-11 -37 -13 -16 -2 -31 -8 -35 -14 -10 -16 -51 -3 -52 17 0 11 -3 9 -9 -6 -6
-15 -18 -23 -32 -23 -13 0 -18 3 -12 8 27 17 16 62 -15 62 -6 0 -11 8 -11 18
0 15 -15 20 -92 31 -86 12 -218 39 -227 47 -5 5 9 24 19 24 5 0 11 -4 14 -9z
m556 -62 c0 -5 -4 -9 -10 -9 -5 0 -10 7 -10 16 0 8 5 12 10 9 6 -3 10 -10 10
-16z m-340 -35 c0 -2 -9 -4 -21 -4 -11 0 -18 4 -14 10 5 8 35 3 35 -6z m58
-12 c2 -7 -4 -12 -13 -12 -9 0 -14 -4 -11 -8 3 -5 19 -7 36 -4 16 2 30 0 30
-4 0 -11 -40 -11 -98 0 -41 8 -50 26 -11 26 10 0 19 4 19 8 0 13 43 7 48 -6z
m182 -88 c0 -8 -5 -12 -10 -9 -6 4 -8 11 -5 16 9 14 15 11 15 -7z"/>
<path d="M3418 3493 c-10 -2 -18 -9 -18 -14 0 -14 16 -11 30 6 7 8 11 14 9 14
-2 -1 -12 -3 -21 -6z"/>
<path d="M3420 3460 c0 -5 5 -10 10 -10 6 0 10 5 10 10 0 6 -4 10 -10 10 -5 0
-10 -4 -10 -10z"/>
<path d="M2226 3659 c-27 -23 -13 -51 29 -56 16 -3 33 -10 38 -16 7 -9 10 -9
13 0 3 7 21 15 40 19 41 8 42 14 6 41 -38 28 -99 34 -126 12z"/>
<path d="M4320 3535 c0 -8 5 -15 10 -15 6 0 10 7 10 15 0 8 -4 15 -10 15 -5 0
-10 -7 -10 -15z"/>
<path d="M5191 4764 c0 -11 3 -14 6 -6 3 7 2 16 -1 19 -3 4 -6 -2 -5 -13z"/>
<path d="M1557 4269 c-14 -8 -47 -58 -47 -72 0 -2 18 13 40 34 50 47 53 65 7
38z"/>
<path d="M7186 12035 c-4 -14 -4 -30 -1 -35 8 -13 -14 -52 -25 -45 -5 3 -14
-4 -20 -15 -9 -17 -8 -20 10 -20 11 0 20 5 20 11 0 6 7 9 15 5 12 -4 15 6 15
59 0 69 -4 80 -14 40z"/>
<path d="M6960 11930 c0 -5 -7 -10 -15 -10 -8 0 -15 -7 -15 -15 0 -8 7 -15 15
-15 8 0 15 -4 15 -10 0 -5 18 -10 40 -10 22 0 40 5 40 10 0 6 -18 10 -40 10
-29 0 -40 4 -40 15 0 8 5 15 10 15 6 0 10 5 10 10 0 6 -4 10 -10 10 -5 0 -10
-4 -10 -10z"/>
<path d="M6940 11690 c-13 -8 -12 -10 3 -10 9 0 17 5 17 10 0 12 -1 12 -20 0z"/>
<path d="M6860 11671 c0 -6 5 -13 10 -16 6 -3 10 1 10 9 0 9 -4 16 -10 16 -5
0 -10 -4 -10 -9z"/>
<path d="M6917 11664 c-14 -15 -6 -34 14 -34 14 0 19 5 17 17 -3 18 -20 27
-31 17z"/>
<path d="M7040 11620 c0 -11 4 -20 9 -20 5 0 7 9 4 20 -3 11 -7 20 -9 20 -2 0
-4 -9 -4 -20z"/>
<path d="M6946 11541 c-4 -7 -5 -15 -2 -18 9 -9 19 4 14 18 -4 11 -6 11 -12 0z"/>
<path d="M7128 11513 c7 -3 16 -2 19 1 4 3 -2 6 -13 5 -11 0 -14 -3 -6 -6z"/>
<path d="M6827 11448 c-9 -32 11 -48 29 -23 17 22 14 39 -8 43 -9 2 -18 -6
-21 -20z"/>
<path d="M6960 11385 c0 -9 5 -15 11 -13 6 2 11 8 11 13 0 5 -5 11 -11 13 -6
2 -11 -4 -11 -13z"/>
<path d="M6868 11384 c-5 -4 -8 -16 -8 -26 0 -11 -7 -18 -20 -18 -13 0 -20 -7
-20 -20 0 -13 7 -20 20 -20 13 0 20 7 20 19 0 11 5 21 11 23 6 2 9 14 7 27 -1
12 -6 19 -10 15z"/>
<path d="M7048 11358 c5 -5 16 -8 23 -6 8 3 3 7 -10 11 -17 4 -21 3 -13 -5z"/>
<path d="M7058 11283 c7 -3 16 -2 19 1 4 3 -2 6 -13 5 -11 0 -14 -3 -6 -6z"/>
<path d="M7025 11270 c3 -5 8 -10 11 -10 2 0 4 5 4 10 0 6 -5 10 -11 10 -5 0
-7 -4 -4 -10z"/>
<path d="M7016 11215 l-29 -25 24 -9 c13 -4 26 -5 29 -1 3 4 13 9 24 11 18 4
18 5 0 27 l-19 22 -29 -25z"/>
<path d="M7068 11155 c-3 -3 -18 -8 -34 -11 -36 -7 -46 -13 -38 -25 13 -21
104 7 104 32 0 10 -23 12 -32 4z"/>
<path d="M6720 11074 c0 -8 5 -12 10 -9 6 4 8 11 5 16 -9 14 -15 11 -15 -7z"/>
<path d="M6825 11059 c-12 -19 5 -23 22 -6 16 16 16 17 1 17 -9 0 -20 -5 -23
-11z"/>
<path d="M6783 11044 c-3 -8 -1 -20 6 -27 8 -8 11 -4 11 16 0 30 -7 35 -17 11z"/>
<path d="M6868 10953 c6 -2 12 -13 12 -24 0 -21 15 -26 25 -8 7 11 -22 39 -40
38 -5 0 -4 -3 3 -6z"/>
<path d="M6938 10883 c12 -2 22 -12 22 -21 0 -13 3 -13 12 -4 16 16 -5 32 -37
30 -17 -1 -17 -1 3 -5z"/>
<path d="M7161 10864 c0 -11 3 -14 6 -6 3 7 2 16 -1 19 -3 4 -6 -2 -5 -13z"/>
<path d="M7180 10790 c0 -5 5 -10 10 -10 6 0 10 5 10 10 0 6 -4 10 -10 10 -5
0 -10 -4 -10 -10z"/>
<path d="M7120 10731 c0 -5 7 -12 16 -15 24 -9 27 -7 10 9 -17 17 -26 19 -26
6z"/>
<path d="M6700 7590 c0 -5 5 -10 10 -10 6 0 10 5 10 10 0 6 -4 10 -10 10 -5 0
-10 -4 -10 -10z"/>
<path d="M5920 6360 c0 -29 4 -40 15 -40 11 0 15 11 15 40 0 29 -4 40 -15 40
-11 0 -15 -11 -15 -40z"/>
<path d="M6820 6190 c0 -5 5 -10 10 -10 6 0 10 5 10 10 0 6 -4 10 -10 10 -5 0
-10 -4 -10 -10z"/>
<path d="M6743 6090 c-62 -69 -103 -142 -139 -245 -59 -169 -26 -429 83 -645
58 -117 96 -181 143 -245 22 -30 40 -58 40 -63 0 -4 14 -21 30 -37 17 -16 30
-35 30 -43 0 -9 6 -12 16 -8 8 3 12 2 9 -4 -8 -12 54 -100 98 -139 9 -8 17
-19 17 -23 0 -10 41 -70 69 -98 13 -14 32 -38 43 -55 11 -16 17 -21 13 -10
-10 26 -10 45 0 68 7 16 3 19 -21 17 -47 -3 -52 -1 -58 24 -3 14 -13 32 -22
41 -15 15 -15 17 5 22 11 3 21 10 21 15 0 6 -6 8 -14 5 -15 -6 -66 13 -66 25
0 4 5 10 11 14 8 5 8 9 -1 14 -7 5 -14 38 -17 81 -2 41 -9 76 -14 77 -5 2 -9
21 -9 43 0 28 -4 39 -15 39 -10 0 -15 10 -15 34 0 28 -10 44 -50 85 -27 28
-50 56 -50 63 0 7 -9 19 -20 26 -16 9 -20 23 -20 61 0 33 -6 56 -20 74 -23 29
-26 53 -7 60 10 4 10 7 0 18 -11 11 -13 10 -13 -4 0 -9 -4 -17 -10 -17 -5 0
-10 18 -10 39 0 22 -5 41 -12 43 -8 3 -12 43 -13 124 -3 194 -3 194 -22 194
-14 0 -15 12 -10 117 4 66 11 119 17 121 5 2 10 21 10 42 0 21 5 40 11 42 6 2
10 10 8 19 -3 11 -9 9 -26 -11z m-28 -880 c3 -5 1 -10 -4 -10 -6 0 -11 5 -11
10 0 6 2 10 4 10 3 0 8 -4 11 -10z m63 -110 c7 -11 9 -20 4 -20 -4 0 -13 9
-20 20 -7 11 -9 20 -4 20 4 0 13 -9 20 -20z m102 4 c0 -8 -4 -12 -10 -9 -5 3
-10 10 -10 16 0 5 5 9 10 9 6 0 10 -7 10 -16z m-53 -90 c-3 -3 -12 -4 -19 -1
-8 3 -5 6 6 6 11 1 17 -2 13 -5z m50 -26 c-3 -7 -5 -2 -5 12 0 14 2 19 5 13 2
-7 2 -19 0 -25z m-27 -3 c0 -8 -2 -15 -4 -15 -2 0 -6 7 -10 15 -3 8 -1 15 4
15 6 0 10 -7 10 -15z m80 -115 c0 -5 -2 -10 -4 -10 -3 0 -8 5 -11 10 -3 6 -1
10 4 10 6 0 11 -4 11 -10z m100 -80 c0 -5 -4 -10 -10 -10 -5 0 -10 5 -10 10 0
6 5 10 10 10 6 0 10 -4 10 -10z m-11 -44 c26 -41 27 -57 3 -25 -19 24 -35 59
-28 59 3 0 14 -15 25 -34z"/>
<path d="M6921 5454 c0 -11 3 -14 6 -6 3 7 2 16 -1 19 -3 4 -6 -2 -5 -13z"/>
<path d="M6930 5412 c0 -5 7 -17 15 -28 14 -18 14 -18 15 9 0 17 -5 27 -15 27
-8 0 -15 -4 -15 -8z"/>
<path d="M6960 5351 c0 -6 5 -13 10 -16 6 -3 10 -15 10 -25 0 -35 20 -74 32
-62 7 7 4 25 -13 61 -20 46 -39 66 -39 42z"/>
<path d="M7020 5215 c0 -8 3 -15 8 -15 10 0 32 -50 32 -72 0 -9 9 -22 20 -28
11 -6 20 -15 20 -21 0 -13 29 -43 36 -37 5 5 -8 32 -46 93 -14 22 -32 52 -39
68 -16 29 -31 36 -31 12z"/>
<path d="M7140 5017 c0 -14 41 -57 53 -57 13 0 7 20 -15 45 -24 28 -38 32 -38
12z"/>
<path d="M7040 4935 c0 -14 2 -25 4 -25 2 0 6 11 8 25 3 14 1 25 -3 25 -5 0
-9 -11 -9 -25z"/>
<path d="M7075 4700 c-3 -5 3 -10 14 -10 12 0 21 5 21 10 0 6 -6 10 -14 10 -8
0 -18 -4 -21 -10z"/>
<path d="M6353 4348 c-47 -15 -41 -28 7 -16 22 6 40 14 40 19 0 11 -5 10 -47
-3z"/>
<path d="M6090 4156 c0 -2 8 -10 18 -17 15 -13 16 -12 3 4 -13 16 -21 21 -21
13z"/>
<path d="M6076 4137 c3 -10 9 -15 12 -12 3 3 0 11 -7 18 -10 9 -11 8 -5 -6z"/>
<path d="M6110 4090 c6 -11 13 -20 16 -20 2 0 0 9 -6 20 -6 11 -13 20 -16 20
-2 0 0 -9 6 -20z"/>
<path d="M6140 4041 c0 -6 4 -13 10 -16 6 -3 7 1 4 9 -7 18 -14 21 -14 7z"/>
<path d="M6176 3985 c4 -8 11 -15 16 -15 6 0 5 6 -2 15 -7 8 -14 15 -16 15 -2
0 -1 -7 2 -15z"/>
<path d="M6201 3955 c0 -5 6 -19 14 -29 8 -11 15 -15 15 -10 0 6 -7 19 -15 30
-8 10 -14 15 -14 9z"/>
<path d="M6240 3876 c0 -2 7 -9 15 -16 13 -11 14 -10 9 4 -5 14 -24 23 -24 12z"/>
<path d="M6410 3850 c0 -5 7 -10 16 -10 8 0 12 5 9 10 -3 6 -10 10 -16 10 -5
0 -9 -4 -9 -10z"/>
<path d="M6290 3808 c0 -9 5 -20 10 -23 13 -8 13 5 0 25 -8 13 -10 13 -10 -2z"/>
<path d="M6335 3726 c14 -18 25 -38 25 -44 0 -6 3 -12 8 -14 4 -1 15 -20 24
-40 23 -49 48 -42 48 13 0 31 -4 39 -18 39 -11 0 -24 15 -35 40 -9 22 -21 40
-27 40 -13 0 -13 -13 1 -27 6 -6 9 -17 6 -25 -3 -8 -9 -3 -17 14 -7 15 -19 29
-27 32 -7 3 -2 -9 12 -28z m50 -36 c3 -5 1 -10 -4 -10 -6 0 -11 5 -11 10 0 6
2 10 4 10 3 0 8 -4 11 -10z"/>
<path d="M6480 3724 c0 -24 23 -48 41 -42 7 2 2 15 -14 33 -24 28 -26 28 -27
9z"/>
<path d="M6938 3633 c7 -3 16 -2 19 1 4 3 -2 6 -13 5 -11 0 -14 -3 -6 -6z"/>
<path d="M6925 3590 c-3 -5 1 -10 10 -10 9 0 13 5 10 10 -3 6 -8 10 -10 10 -2
0 -7 -4 -10 -10z"/>
<path d="M6510 3575 c-10 -12 -10 -18 0 -30 19 -23 30 -18 30 15 0 33 -11 38
-30 15z"/>
<path d="M6895 3450 c-3 -5 3 -10 15 -10 12 0 18 5 15 10 -3 6 -10 10 -15 10
-5 0 -12 -4 -15 -10z"/>
<path d="M6621 3294 c0 -11 3 -14 6 -6 3 7 2 16 -1 19 -3 4 -6 -2 -5 -13z"/>
<path d="M6647 3291 c-4 -17 -3 -21 5 -13 5 5 8 16 6 23 -3 8 -7 3 -11 -10z"/>
<path d="M6631 3244 c0 -11 3 -14 6 -6 3 7 2 16 -1 19 -3 4 -6 -2 -5 -13z"/>
<path d="M6856 3233 c-12 -12 -6 -33 9 -33 8 0 15 6 15 14 0 17 -14 28 -24 19z"/>
<path d="M6821 2844 c0 -11 3 -14 6 -6 3 7 2 16 -1 19 -3 4 -6 -2 -5 -13z"/>
<path d="M6850 2771 c0 -6 4 -13 10 -16 6 -3 7 1 4 9 -7 18 -14 21 -14 7z"/>
<path d="M4752 2710 c0 -14 2 -19 5 -12 2 6 2 18 0 25 -3 6 -5 1 -5 -13z"/>
<path d="M4750 2604 c0 -8 5 -12 10 -9 6 3 10 10 10 16 0 5 -4 9 -10 9 -5 0
-10 -7 -10 -16z"/>
<path d="M5720 2429 c-34 -29 -34 -30 -4 -10 17 11 34 18 38 14 3 -3 6 1 6 10
0 22 0 22 -40 -14z"/>
<path d="M5655 2380 c-18 -20 -18 -21 1 -14 18 7 18 6 2 -12 -16 -19 -16 -20
1 -20 13 0 18 8 18 33 0 18 -1 33 -2 33 -1 0 -10 -9 -20 -20z"/>
<path d="M5680 2305 c-7 -8 -9 -15 -6 -15 4 0 14 7 22 15 9 8 11 15 6 15 -5 0
-15 -7 -22 -15z"/>
<path d="M5820 2310 c0 -5 5 -10 10 -10 6 0 10 5 10 10 0 6 -4 10 -10 10 -5 0
-10 -4 -10 -10z"/>
<path d="M5755 2290 c-3 -5 -1 -10 4 -10 6 0 11 5 11 10 0 6 -2 10 -4 10 -3 0
-8 -4 -11 -10z"/>
<path d="M5790 2280 c0 -5 5 -10 10 -10 6 0 10 5 10 10 0 6 -4 10 -10 10 -5 0
-10 -4 -10 -10z"/>
<path d="M5876 2255 c-10 -15 -15 -32 -12 -38 3 -8 5 -7 5 2 1 8 8 23 18 33 9
10 14 20 11 23 -3 3 -13 -6 -22 -20z"/>
<path d="M5718 2248 c-23 -24 -23 -40 2 -56 17 -10 20 -10 20 2 0 8 11 23 25
34 29 23 30 28 9 36 -10 4 -15 2 -12 -6 2 -7 -6 -24 -19 -37 -21 -22 -23 -23
-23 -5 0 11 5 25 12 32 6 6 10 13 7 15 -2 2 -12 -5 -21 -15z"/>
<path d="M5812 2243 c-20 -22 -29 -43 -18 -43 7 0 49 61 44 65 -2 2 -13 -8
-26 -22z"/>
<path d="M6000 2189 c0 -5 5 -7 10 -4 6 3 10 8 10 11 0 2 -4 4 -10 4 -5 0 -10
-5 -10 -11z"/>
<path d="M5823 2183 c-7 -3 -13 -10 -13 -16 0 -7 -11 -24 -25 -39 -14 -15 -25
-30 -25 -33 0 -3 -13 -18 -28 -33 -27 -26 -61 -106 -50 -118 3 -3 12 9 19 25
8 17 17 31 21 31 5 0 8 4 8 10 0 10 34 65 81 128 32 43 35 53 12 45z"/>
<path d="M5846 2130 c-29 -44 -31 -50 -16 -50 6 0 10 5 10 12 0 6 11 26 26 45
14 18 21 33 16 33 -5 0 -21 -18 -36 -40z"/>
<path d="M5916 2153 c-3 -10 -9 -24 -12 -30 -3 -7 -1 -13 4 -13 5 0 13 12 16
26 8 30 2 44 -8 17z"/>
<path d="M5883 2084 c-19 -20 -16 -38 3 -20 8 9 14 20 12 25 -2 5 -9 3 -15 -5z"/>
<path d="M6015 2090 c-3 -5 -1 -10 4 -10 6 0 11 5 11 10 0 6 -2 10 -4 10 -3 0
-8 -4 -11 -10z"/>
<path d="M4938 2055 c2 -14 8 -28 13 -31 10 -6 11 2 3 34 -9 30 -22 28 -16 -3z"/>
<path d="M5800 2045 c0 -8 2 -15 4 -15 2 0 6 7 10 15 3 8 1 15 -4 15 -6 0 -10
-7 -10 -15z"/>
<path d="M5886 1994 c-4 -14 -5 -29 -2 -31 3 -3 8 7 12 21 3 15 4 29 1 32 -2
3 -8 -7 -11 -22z"/>
<path d="M5821 1993 c0 -13 -5 -23 -11 -23 -5 0 -10 -9 -10 -21 0 -19 1 -19
16 -5 9 10 14 27 11 43 -3 23 -4 24 -6 6z"/>
<path d="M5840 1999 c0 -5 5 -7 10 -4 6 3 10 8 10 11 0 2 -4 4 -10 4 -5 0 -10
-5 -10 -11z"/>
<path d="M4960 1965 c0 -14 5 -25 10 -25 6 0 10 11 10 25 0 14 -4 25 -10 25
-5 0 -10 -11 -10 -25z"/>
<path d="M6002 1955 c0 -16 2 -22 5 -12 2 9 2 23 0 30 -3 6 -5 -1 -5 -18z"/>
<path d="M5941 1954 c0 -11 3 -14 6 -6 3 7 2 16 -1 19 -3 4 -6 -2 -5 -13z"/>
<path d="M5861 1944 c0 -11 3 -14 6 -6 3 7 2 16 -1 19 -3 4 -6 -2 -5 -13z"/>
<path d="M5922 1935 c0 -16 2 -22 5 -12 2 9 2 23 0 30 -3 6 -5 -1 -5 -18z"/>
<path d="M5774 1916 c-5 -21 -9 -25 -16 -14 -7 10 -8 8 -4 -5 3 -10 6 -21 6
-23 0 -2 5 -4 10 -4 6 0 10 12 11 28 0 24 1 25 9 7 6 -13 9 -15 9 -5 0 8 -3
22 -8 29 -8 12 -11 9 -17 -13z"/>
<path d="M5810 1865 c0 -24 2 -26 15 -15 9 7 12 16 8 19 -4 4 -11 10 -15 15
-5 5 -8 -3 -8 -19z"/>
<path d="M4950 1853 c0 -18 5 -33 10 -33 13 0 13 30 0 50 -7 11 -10 7 -10 -17z"/>
<path d="M5960 1869 c0 -5 5 -7 10 -4 6 3 10 8 10 11 0 2 -4 4 -10 4 -5 0 -10
-5 -10 -11z"/>
<path d="M5733 1835 c0 -14 3 -25 8 -25 15 0 17 15 4 33 -11 16 -12 15 -12 -8z"/>
<path d="M5750 1856 c0 -2 8 -10 18 -17 15 -13 16 -12 3 4 -13 16 -21 21 -21
13z"/>
<path d="M6140 1851 c0 -6 4 -13 10 -16 6 -3 7 1 4 9 -7 18 -14 21 -14 7z"/>
<path d="M6240 1839 c0 -11 5 -17 10 -14 6 3 10 13 10 21 0 8 -4 14 -10 14 -5
0 -10 -9 -10 -21z"/>
<path d="M5991 1840 c-1 -21 16 -46 26 -37 4 5 3 11 -3 15 -6 4 -14 14 -17 22
-5 13 -5 13 -6 0z"/>
<path d="M5831 1824 c0 -11 3 -14 6 -6 3 7 2 16 -1 19 -3 4 -6 -2 -5 -13z"/>
<path d="M5852 1820 c0 -14 2 -19 5 -12 2 6 2 18 0 25 -3 6 -5 1 -5 -13z"/>
<path d="M5945 1831 c-3 -5 -1 -12 5 -16 5 -3 10 1 10 9 0 18 -6 21 -15 7z"/>
<path d="M5811 1804 c0 -11 3 -14 6 -6 3 7 2 16 -1 19 -3 4 -6 -2 -5 -13z"/>
<path d="M6131 1794 c0 -11 3 -14 6 -6 3 7 2 16 -1 19 -3 4 -6 -2 -5 -13z"/>
<path d="M4952 1780 c0 -14 2 -19 5 -12 2 6 2 18 0 25 -3 6 -5 1 -5 -13z"/>
<path d="M6051 1784 c0 -11 3 -14 6 -6 3 7 2 16 -1 19 -3 4 -6 -2 -5 -13z"/>
<path d="M6340 1780 c1 -16 41 -50 59 -50 22 0 27 16 11 40 -8 13 -70 22 -70
10z"/>
<path d="M5910 1771 c0 -7 -4 -10 -8 -7 -4 2 -6 -12 -3 -32 l5 -37 7 40 c4 22
5 42 3 44 -2 2 -4 -1 -4 -8z"/>
<path d="M6100 1755 c0 -15 4 -24 10 -20 6 3 10 12 10 20 0 8 -4 17 -10 20 -6
4 -10 -5 -10 -20z"/>
<path d="M6082 1750 c0 -14 2 -19 5 -12 2 6 2 18 0 25 -3 6 -5 1 -5 -13z"/>
<path d="M6132 1727 c-26 -57 -26 -61 -8 -76 23 -19 37 11 34 71 l-3 53 -23
-48z"/>
<path d="M5970 1749 c0 -5 5 -7 10 -4 6 3 10 8 10 11 0 2 -4 4 -10 4 -5 0 -10
-5 -10 -11z"/>
<path d="M5881 1710 c-1 -26 -4 -31 -11 -20 -7 11 -11 4 -16 -29 -5 -29 -10
-38 -15 -29 -5 7 -9 9 -9 3 1 -5 7 -19 15 -29 15 -19 15 -19 16 5 0 22 1 23 9
4 8 -18 9 -18 9 6 1 14 -5 31 -11 38 -11 11 -10 13 0 7 16 -9 25 14 19 51 -4
25 -4 25 -6 -7z"/>
<path d="M6480 1700 c0 -5 7 -7 15 -4 8 4 15 8 15 10 0 2 -7 4 -15 4 -8 0 -15
-4 -15 -10z"/>
<path d="M5950 1695 c0 -5 5 -17 10 -25 5 -8 10 -10 10 -5 0 6 -5 17 -10 25
-5 8 -10 11 -10 5z"/>
<path d="M6223 1661 c-1 -42 17 -65 33 -43 9 13 12 12 17 -7 3 -11 1 -21 -4
-21 -5 0 -9 -4 -9 -10 0 -5 6 -10 14 -10 18 0 49 -66 43 -91 -6 -22 16 -49 39
-49 11 0 13 -6 9 -20 -4 -12 -2 -20 5 -20 6 0 8 -5 5 -10 -3 -6 1 -17 9 -26 9
-8 19 -27 22 -42 13 -59 49 -138 71 -156 13 -10 32 -35 42 -55 11 -20 28 -45
40 -55 12 -11 21 -25 21 -33 0 -7 8 -13 19 -13 21 0 36 -33 46 -100 3 -24 10
-49 15 -55 14 -17 41 -97 46 -140 3 -22 7 -49 8 -60 4 -21 58 -113 101 -174
18 -24 25 -47 25 -78 0 -24 7 -59 15 -79 8 -19 15 -38 16 -42 3 -9 64 -76 101
-113 15 -14 41 -32 58 -39 27 -11 30 -16 24 -45 -11 -58 1 -75 52 -75 42 0 44
1 44 30 0 20 -5 30 -15 30 -8 0 -15 3 -16 8 -5 69 -4 90 3 80 5 -9 8 -6 8 9 0
12 3 23 8 26 4 2 2 3 -3 1 -6 -1 -17 17 -24 40 -17 54 -39 80 -58 65 -7 -6
-13 -20 -13 -31 0 -16 -2 -17 -14 -6 -8 8 -11 26 -8 46 4 31 4 32 -29 26 -30
-6 -32 -5 -16 7 16 13 16 16 -12 47 -17 17 -36 32 -44 32 -15 0 -77 57 -77 72
0 5 7 11 15 14 8 4 12 10 9 15 -3 5 -10 7 -15 4 -5 -4 -12 2 -16 12 -4 10 -10
20 -13 23 -4 3 -10 20 -13 38 -5 24 -3 32 8 32 19 0 19 19 1 26 -8 3 -20 20
-26 37 -9 28 -8 34 10 49 28 23 19 35 -30 43 -22 4 -40 11 -40 16 0 6 15 7 37
3 35 -7 36 -6 21 9 -9 10 -21 17 -27 17 -5 0 -16 9 -24 20 -8 11 -17 17 -22
12 -4 -4 -6 3 -3 15 6 24 -14 49 -32 38 -12 -8 -12 -8 0 33 7 28 7 33 -5 28
-18 -7 -30 16 -40 74 -17 102 -7 146 35 155 16 4 30 11 30 16 0 14 -58 11 -63
-3 -4 -10 -6 -10 -6 0 -1 6 -10 12 -21 12 -21 0 -27 15 -10 25 21 13 8 26 -25
23 -19 -1 -37 1 -41 5 -4 4 -1 7 6 7 9 0 8 6 -5 20 -10 11 -26 20 -36 20 -16
0 -17 4 -7 31 9 26 12 29 20 15 13 -24 31 -20 18 4 -6 11 -10 26 -9 33 4 33
-2 47 -21 47 -11 0 -23 7 -27 16 -3 8 -17 20 -30 25 -14 5 -21 14 -17 20 7 12
-20 8 -61 -7 -14 -6 -16 -3 -10 16 5 15 2 26 -6 31 -12 8 -12 11 0 18 12 8 12
12 2 25 -7 9 -18 13 -24 9 -6 -4 -8 3 -3 20 5 21 3 25 -9 21 -9 -4 -21 4 -32
24 -25 43 -59 39 -60 -7z m195 -203 c-7 -19 -38 -22 -38 -4 0 10 9 16 21 16
12 0 19 -5 17 -12z m47 -128 c3 -5 2 -10 -4 -10 -5 0 -13 5 -16 10 -3 6 -2 10
4 10 5 0 13 -4 16 -10z m611 -1138 c-10 -9 -13 0 -20 48 l-6 45 16 -43 c8 -24
13 -46 10 -50z"/>
<path d="M5920 1676 c0 -9 5 -16 10 -16 6 0 10 4 10 9 0 6 -4 13 -10 16 -5 3
-10 -1 -10 -9z"/>
<path d="M5978 1650 c-3 -18 1 -35 8 -41 10 -8 12 -3 7 28 -7 49 -10 51 -15
13z"/>
<path d="M5894 1607 c3 -15 3 -27 -2 -27 -5 0 -14 -12 -20 -26 -10 -20 -9 -28
3 -40 13 -14 15 -13 15 11 0 14 7 28 15 31 18 7 16 46 -4 64 -12 12 -13 10 -7
-13z"/>
<path d="M5931 1614 c0 -11 3 -14 6 -6 3 7 2 16 -1 19 -3 4 -6 -2 -5 -13z"/>
<path d="M5950 1610 c0 -11 4 -20 9 -20 5 0 7 9 4 20 -3 11 -7 20 -9 20 -2 0
-4 -9 -4 -20z"/>
<path d="M5815 1595 c2 -16 4 -48 5 -70 2 -39 3 -39 10 -10 12 48 11 70 -4 91
-14 18 -15 17 -11 -11z"/>
<path d="M6077 1605 c-8 -19 8 -28 33 -20 24 8 26 21 4 29 -24 9 -31 7 -37 -9z"/>
<path d="M6455 1600 c-3 -5 1 -10 10 -10 9 0 13 5 10 10 -3 6 -8 10 -10 10 -2
0 -7 -4 -10 -10z"/>
<path d="M5950 1560 c0 -19 3 -21 12 -12 9 9 9 15 0 24 -9 9 -12 7 -12 -12z"/>
<path d="M6395 1560 c4 -6 11 -8 16 -5 14 9 11 15 -7 15 -8 0 -12 -5 -9 -10z"/>
<path d="M6436 1541 c-9 -13 20 -21 54 -14 39 7 49 23 16 23 -14 0 -26 -5 -26
-12 0 -9 -3 -9 -12 0 -14 14 -25 15 -32 3z"/>
<path d="M5920 1511 c0 -6 5 -13 10 -16 6 -3 10 1 10 9 0 9 -4 16 -10 16 -5 0
-10 -4 -10 -9z"/>
<path d="M6515 1511 c-11 -5 -23 -7 -27 -4 -5 2 -8 -5 -8 -16 0 -27 31 -28 53
-3 28 31 22 38 -18 23z"/>
<path d="M5900 1484 c0 -8 5 -12 10 -9 6 3 10 10 10 16 0 5 -4 9 -10 9 -5 0
-10 -7 -10 -16z"/>
<path d="M6001 1424 c0 -11 3 -14 6 -6 3 7 2 16 -1 19 -3 4 -6 -2 -5 -13z"/>
<path d="M5850 1410 c0 -12 24 -40 34 -40 15 0 4 30 -14 40 -14 8 -20 8 -20 0z"/>
<path d="M6735 1350 c3 -5 10 -10 16 -10 5 0 9 5 9 10 0 6 -7 10 -16 10 -8 0
-12 -4 -9 -10z"/>
<path d="M6986 1277 c3 -10 9 -15 12 -12 3 3 0 11 -7 18 -10 9 -11 8 -5 -6z"/>
<path d="M6166 1103 c10 -53 12 -68 13 -87 1 -15 4 -17 12 -9 17 17 2 123 -16
123 -10 0 -13 -8 -9 -27z"/>
<path d="M2015 1110 c3 -5 8 -10 11 -10 2 0 4 5 4 10 0 6 -5 10 -11 10 -5 0
-7 -4 -4 -10z"/>
<path d="M2106 1065 c-9 -26 -7 -32 5 -12 6 10 9 21 6 23 -2 3 -7 -2 -11 -11z"/>
<path d="M6106 1021 c10 -10 21 -17 23 -15 6 6 -20 34 -32 34 -6 0 -2 -8 9
-19z"/>
<path d="M6151 1004 c0 -11 3 -14 6 -6 3 7 2 16 -1 19 -3 4 -6 -2 -5 -13z"/>
<path d="M5865 990 c-8 -13 4 -32 16 -25 12 8 12 35 0 35 -6 0 -13 -4 -16 -10z"/>
<path d="M6877 929 c7 -7 15 -10 18 -7 3 3 -2 9 -12 12 -14 6 -15 5 -6 -5z"/>
<path d="M6260 904 c0 -17 22 -14 28 4 2 7 -3 12 -12 12 -9 0 -16 -7 -16 -16z"/>
<path d="M6830 882 c0 -18 29 -52 44 -52 4 0 5 12 2 28 -2 15 -5 30 -5 35 -1
4 -10 7 -21 7 -13 0 -20 -7 -20 -18z"/>
<path d="M6311 864 c0 -11 3 -14 6 -6 3 7 2 16 -1 19 -3 4 -6 -2 -5 -13z"/>
<path d="M6321 825 c0 -11 8 -31 19 -45 11 -14 20 -32 20 -41 0 -9 7 -33 15
-52 8 -20 15 -50 15 -67 0 -16 4 -30 10 -30 5 0 19 -22 32 -49 22 -49 22 -49
50 -35 25 13 30 44 7 44 -5 0 -8 10 -7 23 1 12 -8 37 -21 54 -25 34 -21 53 11
53 20 0 20 1 3 28 -27 41 -68 73 -78 59 -5 -7 -6 2 -3 21 6 32 -9 45 -20 17
-9 -22 -22 -18 -38 13 -13 23 -15 24 -15 7z"/>
<path d="M6480 639 c0 -11 4 -18 10 -14 5 3 7 12 3 20 -7 21 -13 19 -13 -6z"/>
<path d="M6893 629 c6 -10 20 -19 29 -19 28 0 21 14 -11 27 -28 10 -29 10 -18
-8z"/>
<path d="M6500 611 c0 -5 7 -11 14 -14 10 -4 13 -1 9 9 -6 15 -23 19 -23 5z"/>
<path d="M5991 594 c0 -11 3 -14 6 -6 3 7 2 16 -1 19 -3 4 -6 -2 -5 -13z"/>
<path d="M6566 582 c8 -15 14 -38 14 -52 0 -30 27 -73 41 -65 5 4 3 13 -6 21
-8 9 -15 26 -15 39 0 34 -16 71 -33 78 -13 5 -13 2 -1 -21z"/>
<path d="M630 586 c0 -9 5 -16 10 -16 6 0 10 4 10 9 0 6 -4 13 -10 16 -5 3
-10 -1 -10 -9z"/>
<path d="M5785 560 c-3 -5 1 -10 9 -10 8 0 18 5 21 10 3 6 -1 10 -9 10 -8 0
-18 -4 -21 -10z"/>
<path d="M5950 560 c-17 -11 -16 -12 23 -14 30 -2 36 8 11 18 -19 7 -16 8 -34
-4z"/>
<path d="M615 550 c-7 -12 2 -30 16 -30 12 0 12 27 0 35 -5 3 -12 1 -16 -5z"/>
<path d="M5995 520 c-8 -13 4 -50 16 -50 5 0 9 14 9 30 0 30 -13 40 -25 20z"/>
<path d="M5890 488 c0 -9 5 -20 10 -23 13 -8 13 5 0 25 -8 13 -10 13 -10 -2z"/>
<path d="M5920 471 c0 -12 5 -21 10 -21 6 0 10 6 10 14 0 8 -4 18 -10 21 -5 3
-10 -3 -10 -14z"/>
<path d="M5630 470 c-4 -28 2 -75 10 -83 15 -16 17 8 4 53 -6 25 -13 38 -14
30z"/>
<path d="M5985 440 c-10 -17 12 -37 25 -24 8 8 6 15 -4 23 -10 9 -16 9 -21 1z"/>
<path d="M6141 434 c0 -11 3 -14 6 -6 3 7 2 16 -1 19 -3 4 -6 -2 -5 -13z"/>
<path d="M5874 419 c-8 -14 16 -59 32 -59 10 0 24 21 24 35 0 7 -32 35 -40 35
-5 0 -12 -5 -16 -11z"/>
<path d="M5586 391 c-4 -7 -5 -15 -2 -18 9 -9 19 4 14 18 -4 11 -6 11 -12 0z"/>
<path d="M7090 361 c0 -6 5 -13 10 -16 6 -3 10 1 10 9 0 9 -4 16 -10 16 -5 0
-10 -4 -10 -9z"/>
<path d="M7090 319 c0 -5 5 -7 10 -4 6 3 10 8 10 11 0 2 -4 4 -10 4 -5 0 -10
-5 -10 -11z"/>
<path d="M6340 230 c0 -3 18 -23 40 -45 42 -41 64 -45 30 -5 -14 16 -17 27
-10 34 17 17 12 21 -25 21 -19 0 -35 -2 -35 -5z"/>
<path d="M6005 220 c-3 -5 -1 -10 4 -10 6 0 11 5 11 10 0 6 -2 10 -4 10 -3 0
-8 -4 -11 -10z"/>
<path d="M7180 178 c0 -7 4 -19 9 -27 6 -9 9 -5 9 13 0 14 -4 26 -9 26 -5 0
-9 -6 -9 -12z"/>
<path d="M7140 136 c0 -37 10 -56 31 -56 24 0 24 5 -2 46 -25 40 -29 42 -29
10z"/>
<path d="M3106 113 c-3 -21 -6 -49 -6 -63 1 -44 21 5 24 56 3 54 -9 58 -18 7z"/>
<path d="M5540 110 c0 -5 5 -10 11 -10 5 0 7 5 4 10 -3 6 -8 10 -11 10 -2 0
-4 -4 -4 -10z"/>
<path d="M2970 99 c0 -5 5 -7 10 -4 6 3 10 8 10 11 0 2 -4 4 -10 4 -5 0 -10
-5 -10 -11z"/>
<path d="M6968 78 c-8 -20 32 -78 55 -78 24 0 21 10 -16 54 -26 30 -35 36 -39
24z"/>
<path d="M7192 45 c0 -17 2 -22 5 -12 2 9 2 23 0 30 -3 6 -5 -1 -5 -18z"/>
<path d="M6160 36 c0 -7 9 -16 20 -19 11 -3 20 -2 20 2 0 3 -9 12 -20 19 -16
10 -20 10 -20 -2z"/>
</g>
</svg>
