<?xml version="1.0" standalone="no"?>
<!DOCTYPE svg PUBLIC "-//W3C//DTD SVG 20010904//EN"
 "http://www.w3.org/TR/2001/REC-SVG-20010904/DTD/svg10.dtd">
<svg version="1.0" xmlns="http://www.w3.org/2000/svg"
 width="720.000000pt" height="1080.000000pt" viewBox="0 0 720.000000 1080.000000"
 preserveAspectRatio="xMidYMid meet">

<g transform="translate(0.000000,1080.000000) scale(0.100000,-0.100000)"
fill="#000000" stroke="none">
<path d="M0 7400 l0 -3400 32 27 c18 16 50 45 73 65 23 21 69 51 103 68 50 25
65 28 85 19 18 -8 49 -5 132 10 164 32 209 19 380 -109 62 -47 105 -67 190
-89 82 -22 125 -44 242 -122 40 -27 76 -49 81 -49 5 0 15 -7 22 -15 7 -8 19
-15 27 -15 8 0 29 -11 48 -25 46 -36 131 -64 215 -71 63 -6 70 -5 64 10 -8 21
26 21 116 2 36 -8 101 -22 145 -32 62 -13 130 -18 306 -18 l225 -1 41 -27 c62
-41 101 -104 109 -175 6 -51 11 -63 48 -98 22 -22 68 -61 101 -87 33 -26 76
-60 95 -77 19 -17 40 -31 47 -31 6 0 30 -16 53 -35 23 -19 45 -35 49 -35 4 0
38 -29 76 -65 100 -94 249 -165 347 -165 38 0 182 -25 197 -35 6 -3 295 -18
391 -19 25 -1 78 3 119 7 65 8 73 7 63 -6 -16 -18 -124 -59 -246 -93 -348 -95
-348 -95 -476 -101 -145 -6 -208 6 -330 64 -80 38 -258 147 -406 250 -51 35
-95 63 -99 63 -18 0 14 -1027 41 -1310 l6 -65 24 30 c14 17 34 47 46 68 12 20
25 37 30 37 5 0 46 -15 93 -34 47 -19 98 -37 115 -41 35 -8 36 -17 14 -97 -9
-32 -14 -61 -10 -65 3 -3 26 8 49 25 74 53 121 66 232 67 129 0 224 -16 242
-41 16 -21 23 -15 48 43 37 81 166 174 198 141 47 -48 117 -167 117 -199 0
-11 4 -18 9 -14 5 3 15 -10 22 -29 16 -44 26 -38 34 22 11 86 35 225 39 229 2
3 23 -5 45 -17 31 -15 43 -17 46 -8 15 42 57 187 80 273 126 475 241 865 263
887 22 21 191 109 262 135 96 36 251 71 360 82 90 9 123 18 230 61 69 28 139
57 155 65 17 7 71 31 120 53 50 22 164 75 255 117 209 98 247 113 329 129 94
20 358 29 471 17 87 -9 106 -16 229 -76 115 -56 226 -123 319 -191 l22 -16 0
3766 0 3766 -3600 0 -3600 0 0 -3400z m3790 1141 c47 -16 110 -36 140 -45 65
-18 185 -83 290 -158 95 -67 302 -273 358 -356 23 -35 47 -69 52 -75 51 -63
94 -125 106 -153 8 -19 33 -64 55 -101 39 -63 127 -239 150 -300 5 -15 13 -50
16 -78 3 -27 10 -58 15 -69 7 -13 7 -16 -1 -12 -8 5 -10 -4 -9 -26 4 -40 -13
-40 -69 -2 -20 13 -48 24 -63 24 -16 0 -47 15 -75 36 -33 25 -61 38 -89 41
-22 2 -45 4 -51 4 -68 7 -307 -40 -321 -63 -10 -15 -26 -8 -20 8 5 13 3 14 -6
6 -7 -5 -38 -12 -68 -16 -76 -7 -80 -8 -80 -18 0 -4 -7 -8 -16 -8 -9 0 -18 -9
-21 -20 -3 -11 -9 -20 -13 -20 -9 0 -33 -61 -26 -67 7 -7 36 9 36 21 0 6 4 5
9 -3 8 -12 12 -11 27 3 9 10 20 14 23 9 9 -13 36 -9 34 5 -2 6 4 9 11 6 8 -3
25 1 38 9 14 9 46 15 81 15 42 -1 63 4 79 18 18 16 20 16 15 2 -4 -12 0 -16
16 -14 12 2 32 8 44 14 27 15 77 16 68 2 -5 -7 12 -9 49 -5 39 4 56 3 56 -5 0
-8 15 -10 51 -5 39 6 53 4 62 -8 7 -8 21 -17 32 -19 11 -2 24 -13 29 -24 9
-19 33 -34 91 -55 17 -6 17 -7 3 -8 -29 -2 -20 -21 10 -21 20 0 23 -3 13 -9
-12 -8 -9 -11 11 -16 18 -5 30 -17 37 -37 7 -21 16 -28 26 -25 21 9 28 -8 26
-69 0 -30 3 -54 7 -54 10 0 33 -127 37 -210 3 -59 -1 -116 -22 -387 -3 -46
-10 -83 -14 -83 -5 0 -9 7 -9 15 0 8 -4 15 -10 15 -5 0 -7 -13 -3 -30 4 -24 0
-36 -17 -55 -15 -16 -20 -30 -15 -44 4 -12 2 -21 -4 -21 -6 0 -11 -16 -11 -35
0 -20 -6 -51 -14 -69 -14 -35 -11 -126 5 -137 5 -3 0 -23 -10 -45 -20 -39 -20
-39 1 -55 15 -12 19 -24 16 -42 -3 -16 -1 -24 4 -20 15 8 -8 -29 -34 -57 -22
-24 -48 -83 -48 -109 0 -6 -9 -21 -20 -33 -11 -12 -20 -27 -20 -34 0 -15 -30
-81 -55 -119 -44 -68 -152 -166 -242 -220 -51 -30 -98 -55 -105 -55 -9 0 -8
-4 2 -10 11 -8 8 -9 -13 -4 -19 4 -33 1 -45 -9 -20 -18 -70 -18 -77 1 -5 14
-35 16 -35 2 0 -14 -155 -162 -198 -187 -20 -13 -45 -23 -54 -23 -10 0 -18 -4
-18 -10 0 -5 -6 -10 -14 -10 -8 0 -27 -7 -43 -15 -28 -15 -82 -37 -118 -50
-11 -4 -71 -9 -133 -12 -110 -5 -114 -4 -190 27 -82 35 -96 40 -152 61 -19 7
-43 21 -53 31 -22 22 -37 23 -37 3 0 -8 5 -15 10 -15 6 0 10 -5 10 -11 0 -27
-95 33 -151 96 -15 17 -55 65 -88 108 -40 50 -68 77 -81 77 -11 0 -20 -4 -20
-10 0 -5 5 -10 12 -10 6 0 8 -3 5 -6 -3 -4 -41 10 -84 31 -43 21 -88 42 -100
47 -12 6 -42 27 -67 48 -25 21 -57 41 -71 44 -16 4 -32 21 -46 49 -14 25 -24
37 -27 28 -3 -8 -12 3 -23 27 -11 23 -28 46 -38 52 -19 9 -61 85 -61 108 0 7
-9 12 -20 12 -13 0 -20 7 -20 19 0 11 -11 41 -24 68 -42 83 -54 143 -59 288
-3 77 -4 132 -1 123 3 -10 9 -18 14 -18 5 0 14 -18 20 -40 13 -48 36 -52 43
-7 6 35 -56 297 -78 333 -7 11 -16 42 -20 67 -4 26 -12 47 -17 47 -18 0 2 260
28 363 8 32 14 76 14 98 0 22 7 53 15 69 13 26 13 30 1 30 -8 0 -17 -6 -20
-12 -3 -7 -3 -2 0 12 4 13 13 30 20 38 8 7 14 20 14 28 0 8 6 14 14 14 8 0 17
9 21 19 3 11 12 18 19 15 7 -3 18 7 24 20 6 14 27 32 47 40 19 8 34 20 33 26
-4 16 81 60 122 62 14 1 28 6 31 11 10 14 126 13 189 -1 34 -8 81 -10 125 -6
59 5 73 3 85 -10 9 -11 16 -13 20 -6 4 6 14 8 23 4 9 -3 15 -10 12 -14 -8 -13
9 -20 53 -24 22 -2 48 -9 59 -14 37 -20 87 12 52 34 -7 4 -8 9 0 17 15 15 40
-9 34 -33 -3 -11 0 -20 6 -20 6 0 11 13 11 30 0 26 -6 33 -42 49 -24 10 -72
22 -108 24 -77 7 -100 14 -100 33 0 16 -26 19 -35 4 -3 -5 -14 -10 -23 -9 -14
0 -13 2 3 8 19 8 19 8 -2 15 -13 4 -31 5 -41 2 -10 -4 -27 1 -38 9 -10 8 -29
15 -42 15 -13 0 -21 4 -18 8 5 9 -49 15 -139 16 -38 1 -74 -6 -100 -17 -78
-36 -125 -62 -125 -69 0 -5 -7 -8 -15 -8 -8 0 -15 -4 -15 -9 0 -12 -29 -41
-41 -41 -5 0 -9 10 -10 23 0 12 -3 16 -6 10 -11 -29 -23 -10 -19 30 5 50 15
77 27 77 5 0 9 18 9 40 0 29 -4 40 -15 40 -21 0 -18 30 5 60 21 26 26 45 11
36 -5 -4 -4 10 2 29 6 19 14 35 19 35 4 0 8 9 8 19 0 11 9 41 20 67 26 59 21
78 -8 33 -23 -37 -30 -20 -9 21 86 162 211 360 272 429 17 20 43 53 58 73 31
42 174 164 227 194 38 21 36 20 100 69 25 19 50 35 57 35 6 0 13 4 15 9 2 6
82 26 178 47 96 20 191 40 210 44 64 14 103 10 190 -19z m-867 -1308 c-7 -2
-21 -2 -30 0 -10 3 -4 5 12 5 17 0 24 -2 18 -5z m1467 -37 c0 -2 -7 -7 -16
-10 -8 -3 -12 -2 -9 4 6 10 25 14 25 6z m-1130 -83 c0 -7 -4 -13 -10 -13 -5 0
-10 12 -10 28 0 21 2 24 10 12 5 -8 10 -21 10 -27z m-913 -15 c-3 -8 -6 -5 -6
6 -1 11 2 17 5 13 3 -3 4 -12 1 -19z m2643 18 c0 -3 -4 -8 -10 -11 -5 -3 -10
-1 -10 4 0 6 5 11 10 11 6 0 10 -2 10 -4z m-2570 -16 c0 -5 -4 -10 -10 -10 -5
0 -10 5 -10 10 0 6 5 10 10 10 6 0 10 -4 10 -10z m-23 -52 c-3 -7 -5 -2 -5 12
0 14 2 19 5 13 2 -7 2 -19 0 -25z m2666 -1129 c5 -4 6 -17 2 -29 -6 -18 -9
-20 -16 -9 -5 9 -9 -11 -9 -53 0 -39 -4 -68 -10 -68 -5 0 -10 -18 -10 -40 0
-22 -7 -57 -16 -78 l-16 -37 -16 33 c-11 22 -13 35 -6 40 6 4 14 41 18 82 3
41 10 77 15 80 4 3 16 29 27 58 10 30 20 48 23 40 2 -7 8 -16 14 -19z"/>
<path d="M3495 8193 c-53 -6 -76 -13 -71 -21 3 -5 42 -4 88 1 55 6 95 5 119
-2 46 -14 99 -14 99 -1 0 6 26 11 58 12 l57 1 -65 7 c-68 8 -234 10 -285 3z"/>
<path d="M3313 8163 c-18 -2 -33 -8 -33 -14 0 -12 43 -12 56 0 5 5 20 11 34
14 l25 4 -25 0 c-14 0 -40 -2 -57 -4z"/>
<path d="M3923 8163 c9 -2 23 -2 30 0 6 3 -1 5 -18 5 -16 0 -22 -2 -12 -5z"/>
<path d="M3373 8143 c9 -2 25 -2 35 0 9 3 1 5 -18 5 -19 0 -27 -2 -17 -5z"/>
<path d="M3238 8133 c7 -3 16 -2 19 1 4 3 -2 6 -13 5 -11 0 -14 -3 -6 -6z"/>
<path d="M4140 8116 c0 -2 7 -7 16 -10 8 -3 12 -2 9 4 -6 10 -25 14 -25 6z"/>
<path d="M3110 8095 c-16 -19 0 -19 26 0 16 12 16 14 3 15 -9 0 -22 -7 -29
-15z"/>
<path d="M4196 8091 c13 -13 110 -61 123 -61 28 0 -6 30 -56 49 -59 23 -83 27
-67 12z"/>
<path d="M3030 8070 c-26 -16 -3 -21 31 -6 31 13 32 14 9 15 -14 0 -32 -3 -40
-9z"/>
<path d="M2920 8017 c-33 -16 -117 -74 -126 -88 -8 -14 31 8 77 44 20 15 41
27 45 27 5 0 18 7 28 15 23 18 11 18 -24 2z"/>
<path d="M2990 8010 c-9 -6 -10 -10 -3 -10 6 0 15 5 18 10 8 12 4 12 -15 0z"/>
<path d="M4375 8010 c3 -5 11 -10 16 -10 6 0 7 5 4 10 -3 6 -11 10 -16 10 -6
0 -7 -4 -4 -10z"/>
<path d="M4047 7174 c-26 -26 -43 -61 -34 -70 2 -3 10 9 17 25 7 17 20 33 30
36 19 6 36 35 21 35 -5 0 -20 -12 -34 -26z"/>
<path d="M3008 7133 c7 -3 16 -2 19 1 4 3 -2 6 -13 5 -11 0 -14 -3 -6 -6z"/>
<path d="M2845 6941 c-79 -28 -118 -48 -159 -83 -27 -24 -82 -41 -114 -35 -30
6 -92 -19 -92 -37 0 -6 13 -28 30 -47 24 -30 39 -38 82 -45 29 -4 63 -7 75 -6
12 2 24 -2 28 -8 8 -14 52 -13 61 1 4 8 28 10 68 6 33 -4 81 -2 106 3 29 5 47
5 51 -2 4 -7 9 -6 13 1 4 6 4 11 -1 12 -4 0 5 5 22 10 18 5 33 5 39 -1 6 -6
19 -10 30 -9 12 0 16 3 9 6 -9 3 -7 10 6 24 18 19 30 42 48 89 l10 25 32 -33
c18 -17 39 -32 47 -32 11 0 13 -6 9 -22 -6 -19 -5 -21 6 -10 17 16 29 15 29
-3 0 -12 -16 -15 -87 -15 -47 0 -83 -3 -79 -7 4 -4 49 -7 101 -8 89 0 95 1 95
20 0 11 -11 37 -25 57 -14 20 -25 40 -25 45 0 21 -101 90 -157 107 -19 6 -22
4 -16 -10 6 -15 2 -16 -33 -10 -21 4 -51 7 -66 7 -55 -2 -27 18 30 22 38 2 28
3 -33 4 -61 1 -106 -5 -140 -16z m105 -1 c0 -5 -4 -10 -10 -10 -5 0 -10 5 -10
10 0 6 5 10 10 10 6 0 10 -4 10 -10z m226 -55 l39 -36 -52 32 c-29 17 -53 33
-53 35 0 14 32 -1 66 -31z m-244 -142 l23 -25 -45 7 c-72 12 -90 22 -90 49 0
15 14 36 37 57 l38 33 7 -48 c4 -29 16 -58 30 -73z m118 102 c0 -8 -9 -15 -20
-15 -11 0 -20 7 -20 15 0 8 9 15 20 15 11 0 20 -7 20 -15z"/>
<path d="M4283 6953 c-15 -3 -20 -10 -17 -21 5 -16 5 -16 -6 0 -9 15 -15 15
-38 6 -75 -33 -153 -109 -199 -197 -24 -43 1 -50 92 -25 43 11 45 13 13 9 -35
-3 -38 -2 -38 21 0 14 7 27 16 31 9 3 30 19 46 35 16 15 36 28 45 28 9 0 14
-3 11 -6 -12 -12 16 -80 44 -107 22 -22 32 -26 43 -17 10 8 14 8 18 -2 4 -10
7 -10 15 1 7 9 12 10 16 2 4 -6 14 -11 22 -11 8 0 13 4 9 9 -3 5 8 3 24 -5 24
-12 58 -14 167 -10 76 3 140 9 143 13 3 5 43 8 87 8 62 0 81 3 79 13 -1 8 -8
18 -16 23 -11 7 -11 9 4 9 9 0 17 4 17 8 0 4 -32 7 -71 5 -61 -2 -69 0 -59 12
10 12 9 15 -4 15 -18 0 -101 45 -123 65 -14 14 -104 58 -158 78 -39 14 -137
19 -182 10z m27 -19 c0 -8 -5 -12 -10 -9 -6 4 -8 11 -5 16 9 14 15 11 15 -7z
m93 2 c17 -13 16 -14 -15 -12 -48 4 -50 5 -43 16 9 14 37 12 58 -4z m-218 -56
c-3 -5 -14 -10 -23 -9 -14 0 -13 2 3 9 27 11 27 11 20 0z m153 -43 c2 -10 -3
-17 -12 -17 -18 0 -29 16 -21 31 9 14 29 6 33 -14z m151 -23 c12 -15 21 -37
21 -49 0 -18 -8 -25 -44 -34 -25 -6 -47 -11 -50 -11 -3 0 3 15 14 33 11 17 20
44 20 60 0 34 13 34 39 1z m-409 -79 c0 -8 -4 -15 -10 -15 -5 0 -10 7 -10 15
0 8 5 15 10 15 6 0 10 -7 10 -15z"/>
<path d="M4385 6680 c3 -5 8 -10 11 -10 2 0 4 5 4 10 0 6 -5 10 -11 10 -5 0
-7 -4 -4 -10z"/>
<path d="M5000 6170 c0 -5 5 -10 10 -10 6 0 10 5 10 10 0 6 -4 10 -10 10 -5 0
-10 -4 -10 -10z"/>
<path d="M3217 6017 c-7 -21 16 -58 45 -73 28 -15 103 -10 93 5 -6 11 58 0 74
-12 51 -41 133 -77 179 -77 42 0 169 50 183 73 4 5 15 7 25 3 10 -4 21 -1 27
6 6 9 7 7 4 -8 -4 -20 0 -21 61 -22 93 -2 142 31 141 93 0 17 -3 24 -6 16 -10
-26 -36 -49 -48 -45 -7 3 -15 -2 -18 -10 -4 -9 -11 -16 -17 -16 -6 0 -9 4 -6
9 10 16 -72 41 -133 41 -33 0 -61 -3 -63 -7 -1 -5 -30 -28 -62 -53 -38 -29
-61 -41 -63 -33 -4 10 -10 10 -25 2 -16 -8 -19 -8 -13 1 5 9 2 10 -12 6 -30
-10 -64 7 -119 58 -34 32 -58 46 -79 47 -45 2 -56 -1 -77 -21 -19 -17 -63 -17
-53 1 3 4 -3 13 -14 18 -14 8 -21 8 -24 -2z"/>
<path d="M2892 5795 c-56 -38 -65 -55 -29 -55 13 0 38 16 60 38 61 63 48 70
-31 17z"/>
<path d="M4392 5790 c7 -11 16 -20 20 -20 3 0 14 -7 22 -16 9 -8 21 -12 26 -9
7 4 -5 19 -27 36 -45 34 -58 37 -41 9z"/>
<path d="M3410 5629 c-77 -10 -232 -30 -275 -33 -16 -2 -42 3 -58 11 -27 14
-67 4 -67 -16 0 -19 39 -41 74 -41 36 0 116 -33 116 -48 0 -19 41 -51 58 -45
9 3 14 2 10 -2 -12 -12 48 -45 80 -44 15 0 43 7 62 14 l35 13 -30 1 c-18 1
-36 9 -45 21 -8 11 -29 23 -47 26 -38 7 -44 18 -10 20 101 7 244 6 302 0 61
-7 77 -5 120 14 43 19 65 21 170 18 66 -1 145 1 175 5 50 7 53 7 35 -7 -11 -9
-25 -20 -32 -26 -7 -5 -19 -10 -28 -10 -8 0 -15 -4 -15 -10 0 -13 3 -13 35 2
14 6 25 15 25 19 0 4 14 10 30 14 17 4 30 10 30 15 0 15 69 36 182 54 32 5 30
15 -3 20 -19 3 -121 7 -226 10 -152 4 -193 3 -193 -7 0 -17 -103 -39 -160 -35
-42 4 -44 4 -20 15 22 10 23 12 8 18 -10 4 -15 12 -12 17 8 13 -56 0 -75 -15
-7 -6 -17 -21 -22 -34 -12 -32 -43 -31 -35 1 4 15 0 28 -8 36 -20 16 -108 20
-186 9z m-150 -119 c0 -5 -7 -10 -15 -10 -8 0 -15 5 -15 10 0 6 7 10 15 10 8
0 15 -4 15 -10z"/>
<path d="M3798 5593 c7 -3 16 -2 19 1 4 3 -2 6 -13 5 -11 0 -14 -3 -6 -6z"/>
<path d="M4505 5520 c3 -5 16 -10 28 -10 18 0 19 2 7 10 -20 13 -43 13 -35 0z"/>
<path d="M3953 5481 c-29 -8 -53 -18 -53 -23 0 -5 5 -6 10 -3 14 9 52 -4 45
-16 -10 -14 12 -10 28 6 8 8 17 12 19 9 3 -2 16 0 29 5 23 9 23 10 2 10 -12 1
-23 7 -25 14 -2 10 -13 10 -55 -2z"/>
<path d="M3820 1506 c0 -9 5 -16 10 -16 6 0 10 4 10 9 0 6 -4 13 -10 16 -5 3
-10 -1 -10 -9z"/>
<path d="M2772 1430 l-43 -69 7 -90 c4 -50 10 -91 13 -91 7 0 81 284 81 308 0
25 -16 9 -58 -58z"/>
<path d="M3646 1474 c-4 -14 -5 -29 -2 -31 3 -3 8 7 12 21 3 15 4 29 1 32 -2
3 -8 -7 -11 -22z"/>
<path d="M3691 1403 c-7 -54 -15 -134 -19 -178 -6 -74 -9 -80 -31 -83 -61 -9
-93 25 -73 78 5 14 6 34 1 45 -7 18 -8 17 -8 -7 -1 -15 -8 -31 -17 -36 -13 -7
-14 -13 -5 -30 17 -32 13 -42 -15 -42 l-27 0 5 85 c6 93 -4 109 -35 56 -24
-41 -135 -142 -188 -170 -145 -78 -173 -91 -204 -91 -43 0 -88 37 -109 91 -9
23 -20 38 -24 35 -4 -4 -16 -35 -27 -69 -18 -56 -23 -62 -45 -59 -14 1 -44 12
-68 23 -24 12 -44 20 -46 18 -6 -7 12 -237 19 -249 14 -23 136 -5 232 34 102
40 143 52 143 40 0 -5 -60 -31 -133 -58 -92 -35 -149 -50 -187 -51 l-55 -2 3
-79 c2 -43 8 -144 12 -224 5 -80 9 -176 9 -214 l0 -69 30 6 c38 8 39 -1 4 -29
-25 -20 -26 -25 -15 -43 17 -29 15 -34 -8 -28 -17 4 -20 0 -20 -33 0 -21 -3
-45 -6 -54 -6 -14 33 -16 390 -16 338 0 396 2 396 14 0 8 -4 18 -10 21 -21 13
-9 27 19 22 28 -6 29 -5 45 56 9 34 25 95 36 136 20 73 20 75 1 92 -19 18 -61
117 -61 144 0 39 -22 14 -73 -84 -62 -118 -69 -154 -36 -172 15 -7 18 -14 11
-21 -8 -8 -18 -7 -34 4 -13 8 -42 20 -65 28 -49 15 -58 40 -15 40 32 0 74 33
66 53 -2 7 23 68 57 136 54 111 59 127 48 148 -7 13 -16 23 -21 23 -4 0 -8 5
-8 10 0 14 37 12 68 -4 22 -11 32 -29 50 -92 27 -91 50 -149 57 -142 5 5 95
296 95 308 0 4 -57 26 -127 50 -71 23 -137 47 -148 53 -11 6 -23 10 -27 9 -14
-4 -8 19 6 24 15 6 53 -6 203 -62 53 -20 99 -32 103 -27 5 4 34 91 66 192 l57
184 -21 41 c-12 22 -35 64 -52 91 -16 28 -37 64 -45 80 -23 46 -89 138 -101
142 -8 3 -16 -30 -23 -94z m-391 -498 c0 -11 -13 -15 -54 -15 -30 0 -61 -3
-70 -6 -10 -4 -16 -1 -16 9 0 17 23 24 93 26 36 1 47 -3 47 -14z m123 -11 c9
-3 17 -9 17 -14 0 -4 8 -6 19 -3 21 5 33 -7 23 -25 -6 -8 -18 -8 -47 3 -22 8
-48 14 -57 15 -10 0 -18 4 -18 9 0 5 -10 7 -22 5 -13 -2 -17 -2 -10 2 6 3 9
10 6 16 -7 10 41 6 89 -8z m-79 -194 c5 -5 2 -23 -7 -42 -9 -18 -24 -109 -35
-206 -10 -95 -22 -175 -26 -179 -7 -8 -25 15 -52 66 -10 20 -21 38 -24 41 -11
11 -60 79 -60 84 0 3 -10 15 -22 28 -13 13 -42 45 -64 72 -38 45 -43 47 -52
30 -14 -26 -42 -165 -42 -207 0 -29 4 -36 25 -41 51 -13 23 -26 -55 -26 -47 0
-80 4 -80 10 0 6 9 10 20 10 27 0 46 35 54 96 4 28 18 84 31 125 31 90 31 97
0 105 -49 12 -20 43 41 44 13 0 41 -22 73 -56 43 -48 51 -63 52 -98 1 -23 4
-31 6 -18 6 31 16 28 49 -15 16 -21 36 -47 46 -57 10 -11 18 -23 18 -28 0 -4
4 -8 9 -8 5 0 12 26 16 58 3 31 10 83 16 114 11 62 1 98 -26 98 -8 0 -15 5
-15 10 0 12 90 3 104 -10z m44 -19 c3 -8 -1 -12 -9 -9 -7 2 -15 10 -17 17 -3
8 1 12 9 9 7 -2 15 -10 17 -17z m-298 -471 c0 -25 4 -30 35 -36 19 -3 32 -11
29 -16 -3 -5 -12 -7 -18 -5 -19 8 -38 -31 -31 -64 8 -35 -7 -38 -29 -7 -14 20
-19 21 -53 10 -20 -6 -38 -10 -40 -8 -2 2 4 17 14 34 18 31 18 32 -4 47 -36
25 -28 38 17 31 36 -6 41 -4 52 19 15 34 28 32 28 -5z"/>
<path d="M3290 1479 c-60 -24 -93 -75 -121 -184 -22 -82 -24 -142 -6 -148 40
-14 127 58 183 152 15 24 37 59 50 79 28 41 31 78 6 91 -30 16 -86 21 -112 10z"/>
<path d="M3450 1410 c0 -5 5 -10 10 -10 6 0 10 5 10 10 0 6 -4 10 -10 10 -5 0
-10 -4 -10 -10z"/>
<path d="M3631 1413 c-1 -6 -4 -20 -7 -30 -5 -17 -5 -17 6 0 6 10 9 23 6 30
-3 9 -5 9 -5 0z"/>
<path d="M3890 1391 c-6 -12 -7 -21 -1 -21 10 0 24 30 17 37 -2 3 -9 -5 -16
-16z"/>
<path d="M3430 1365 c-7 -14 -10 -28 -7 -31 4 -4 11 6 17 21 14 36 7 42 -10
10z"/>
</g>
</svg>
